<?xml version="1.0" encoding="utf-8" standalone="no"?>
<!DOCTYPE svg PUBLIC "-//W3C//DTD SVG 1.1//EN"
  "http://www.w3.org/Graphics/SVG/1.1/DTD/svg11.dtd">
<svg xmlns:xlink="http://www.w3.org/1999/xlink" width="1152pt" height="576pt" viewBox="0 0 1152 576" xmlns="http://www.w3.org/2000/svg" version="1.1">
 <metadata>
  <rdf:RDF xmlns:dc="http://purl.org/dc/elements/1.1/" xmlns:cc="http://creativecommons.org/ns#" xmlns:rdf="http://www.w3.org/1999/02/22-rdf-syntax-ns#">
   <cc:Work>
    <dc:type rdf:resource="http://purl.org/dc/dcmitype/StillImage"/>
    <dc:date>2023-03-17T16:38:19.007151</dc:date>
    <dc:format>image/svg+xml</dc:format>
    <dc:creator>
     <cc:Agent>
      <dc:title>Matplotlib v3.5.2, https://matplotlib.org/</dc:title>
     </cc:Agent>
    </dc:creator>
   </cc:Work>
  </rdf:RDF>
 </metadata>
 <defs>
  <style type="text/css">*{stroke-linejoin: round; stroke-linecap: butt}</style>
 </defs>
 <g id="figure_1">
  <g id="patch_1">
   <path d="M 0 576 
L 1152 576 
L 1152 0 
L 0 0 
z
" style="fill: #ffffff"/>
  </g>
  <g id="axes_1">
   <g id="patch_2">
    <path d="M 144 512.64 
L 1036.8 512.64 
L 1036.8 69.12 
L 144 69.12 
z
" style="fill: #ffffff"/>
   </g>
   <g id="PolyCollection_1">
    <defs>
     <path id="m56b348fd80" d="M 207.771429 -494.284337 
L 207.771429 -494.284337 
L 208.601287 -493.474734 
L 209.431145 -492.66513 
L 210.261004 -491.855526 
L 211.090862 -491.045922 
L 211.920721 -490.236318 
L 212.750579 -489.426714 
L 213.580438 -488.617111 
L 214.410296 -487.807507 
L 215.240154 -486.997903 
L 216.070013 -486.188299 
L 216.899871 -485.378695 
L 217.72973 -484.569092 
L 218.559588 -483.759488 
L 219.389447 -482.949884 
L 220.219305 -482.14028 
L 221.049163 -481.330676 
L 221.879022 -480.521072 
L 222.70888 -479.711469 
L 223.538739 -478.901865 
L 224.368597 -478.092261 
L 225.198456 -477.282657 
L 226.028314 -476.473053 
L 226.858172 -475.663449 
L 227.688031 -474.853846 
L 228.517889 -474.044242 
L 229.347748 -473.234638 
L 230.177606 -472.425034 
L 231.007465 -471.61543 
L 231.837323 -470.805827 
L 232.667181 -469.996223 
L 233.49704 -469.186619 
L 234.326898 -468.377015 
L 235.156757 -467.567411 
L 235.986615 -466.757807 
L 236.816474 -465.948204 
L 237.646332 -465.1386 
L 238.47619 -464.328996 
L 239.306049 -463.519392 
L 240.135907 -462.709788 
L 240.965766 -461.900185 
L 241.795624 -461.090581 
L 242.625483 -460.280977 
L 243.455341 -459.471373 
L 244.285199 -458.661769 
L 245.115058 -457.852165 
L 245.944916 -457.042562 
L 246.774775 -456.232958 
L 247.604633 -455.423354 
L 248.434492 -454.61375 
L 249.26435 -453.804146 
L 250.094208 -452.994542 
L 250.924067 -452.184939 
L 251.753925 -451.375335 
L 252.583784 -450.565731 
L 253.413642 -449.756127 
L 254.243501 -448.946523 
L 255.073359 -448.13692 
L 255.903218 -447.327316 
L 256.733076 -446.517712 
L 257.562934 -445.708108 
L 258.392793 -444.898504 
L 259.222651 -444.0889 
L 260.05251 -443.279297 
L 260.882368 -442.469693 
L 261.712227 -441.660089 
L 262.542085 -440.850485 
L 263.371943 -440.040881 
L 264.201802 -439.231278 
L 265.03166 -438.421674 
L 265.861519 -437.61207 
L 266.691377 -436.802466 
L 267.521236 -435.992862 
L 268.351094 -435.183258 
L 269.180952 -434.373655 
L 270.010811 -433.564051 
L 270.840669 -432.754447 
L 271.670528 -431.944843 
L 272.500386 -431.135239 
L 273.330245 -430.325636 
L 274.160103 -429.516032 
L 274.989961 -428.706428 
L 275.81982 -427.896824 
L 276.649678 -427.08722 
L 277.479537 -426.277616 
L 278.309395 -425.468013 
L 279.139254 -424.658409 
L 279.969112 -423.848805 
L 280.79897 -423.039201 
L 281.628829 -422.229597 
L 282.458687 -421.419993 
L 283.288546 -420.61039 
L 284.118404 -419.800786 
L 284.948263 -418.991182 
L 285.778121 -418.181578 
L 286.607979 -417.371974 
L 287.437838 -416.562371 
L 288.267696 -415.752767 
L 289.097555 -414.943163 
L 289.927413 -414.133559 
L 290.757272 -413.323955 
L 291.58713 -412.514351 
L 292.416988 -411.704748 
L 293.246847 -410.895144 
L 294.076705 -410.08554 
L 294.906564 -409.275936 
L 295.736422 -408.466332 
L 296.566281 -407.656729 
L 297.396139 -406.847125 
L 298.225997 -406.037521 
L 299.055856 -405.227917 
L 299.885714 -404.418313 
L 300.715573 -403.608709 
L 301.545431 -402.799106 
L 302.37529 -401.989502 
L 303.205148 -401.179898 
L 304.035006 -400.370294 
L 304.864865 -399.56069 
L 305.694723 -398.751087 
L 306.524582 -397.941483 
L 307.35444 -397.131879 
L 308.184299 -396.322275 
L 309.014157 -395.512671 
L 309.844015 -394.703067 
L 310.673874 -393.893464 
L 311.503732 -393.08386 
L 312.333591 -392.274256 
L 313.163449 -391.464652 
L 313.993308 -390.655048 
L 314.823166 -389.845444 
L 315.653024 -389.035841 
L 316.482883 -388.226237 
L 317.312741 -387.416633 
L 318.1426 -386.607029 
L 318.972458 -385.797425 
L 319.802317 -384.987822 
L 320.632175 -384.178218 
L 321.462033 -383.368614 
L 322.291892 -382.55901 
L 323.12175 -381.749406 
L 323.951609 -380.939802 
L 324.781467 -380.130199 
L 325.611326 -379.320595 
L 326.441184 -378.510991 
L 327.271042 -377.701387 
L 328.100901 -376.891783 
L 328.930759 -376.08218 
L 329.760618 -375.272576 
L 330.590476 -374.462972 
L 331.420335 -373.653368 
L 332.250193 -372.843764 
L 333.080051 -372.03416 
L 333.90991 -371.224557 
L 334.739768 -370.414953 
L 335.569627 -369.605349 
L 336.399485 -368.795745 
L 337.229344 -367.986141 
L 338.059202 -367.176538 
L 338.88906 -366.366934 
L 339.718919 -365.55733 
L 340.548777 -364.747726 
L 341.378636 -363.938122 
L 342.208494 -363.128518 
L 343.038353 -362.318915 
L 343.868211 -361.509311 
L 344.698069 -360.699707 
L 345.527928 -359.890103 
L 346.357786 -359.080499 
L 347.187645 -358.270895 
L 348.017503 -357.461292 
L 348.847362 -356.651688 
L 349.67722 -355.842084 
L 350.507079 -355.03248 
L 351.336937 -354.222876 
L 352.166795 -353.413273 
L 352.996654 -352.603669 
L 353.826512 -351.794065 
L 354.656371 -350.984461 
L 355.486229 -350.174857 
L 356.316088 -349.365253 
L 357.145946 -348.55565 
L 357.975804 -347.746046 
L 358.805663 -346.936442 
L 359.635521 -346.126838 
L 360.46538 -345.317234 
L 361.295238 -344.507631 
L 362.125097 -343.698027 
L 362.954955 -342.888423 
L 363.784813 -342.078819 
L 364.614672 -341.269215 
L 365.44453 -340.459611 
L 366.274389 -339.650008 
L 367.104247 -338.840404 
L 367.934106 -338.0308 
L 368.763964 -337.221196 
L 369.593822 -336.411592 
L 370.423681 -335.601988 
L 371.253539 -334.792385 
L 372.083398 -333.982781 
L 372.913256 -333.173177 
L 373.743115 -332.363573 
L 374.572973 -331.553969 
L 375.402831 -330.744366 
L 376.23269 -329.934762 
L 377.062548 -329.125158 
L 377.892407 -328.315554 
L 378.722265 -327.50595 
L 379.552124 -326.696346 
L 380.381982 -325.886743 
L 381.21184 -325.077139 
L 382.041699 -324.267535 
L 382.871557 -323.457931 
L 383.701416 -322.648327 
L 384.531274 -321.838724 
L 385.361133 -321.02912 
L 386.190991 -320.219516 
L 387.020849 -319.409912 
L 387.850708 -318.600308 
L 388.680566 -317.790704 
L 389.510425 -316.981101 
L 390.340283 -316.171497 
L 391.170142 -315.361893 
L 392 -314.552289 
L 392.829858 -313.742685 
L 393.659717 -312.933082 
L 394.489575 -312.123478 
L 395.319434 -311.313874 
L 396.149292 -310.50427 
L 396.979151 -309.694666 
L 397.809009 -308.885062 
L 398.638867 -308.075459 
L 399.468726 -307.265855 
L 400.298584 -306.456251 
L 401.128443 -305.646647 
L 401.958301 -304.837043 
L 402.78816 -304.027439 
L 403.618018 -303.217836 
L 404.447876 -302.408232 
L 405.277735 -301.598628 
L 406.107593 -300.789024 
L 406.937452 -299.97942 
L 407.76731 -299.169817 
L 408.597169 -298.360213 
L 409.427027 -297.550609 
L 410.256885 -296.741005 
L 411.086744 -295.931401 
L 411.916602 -295.121797 
L 412.746461 -294.312194 
L 413.576319 -293.50259 
L 414.406178 -292.692986 
L 415.236036 -291.883382 
L 416.065894 -291.073778 
L 416.895753 -290.264175 
L 417.725611 -289.454571 
L 418.55547 -288.644967 
L 419.385328 -287.835363 
L 420.215187 -287.025759 
L 421.045045 -286.216155 
L 421.874903 -285.406552 
L 422.704762 -284.596948 
L 423.53462 -283.787344 
L 424.364479 -282.97774 
L 425.194337 -282.168136 
L 426.024196 -281.358533 
L 426.854054 -280.548929 
L 427.683912 -279.739325 
L 428.513771 -278.929721 
L 429.343629 -278.120117 
L 430.173488 -277.310513 
L 431.003346 -276.50091 
L 431.833205 -275.691306 
L 432.663063 -274.881702 
L 433.492921 -274.072098 
L 434.32278 -273.262494 
L 435.152638 -272.45289 
L 435.982497 -271.643287 
L 436.812355 -270.833683 
L 437.642214 -270.024079 
L 438.472072 -269.214475 
L 439.301931 -268.404871 
L 440.131789 -267.595268 
L 440.961647 -266.785664 
L 441.791506 -265.97606 
L 442.621364 -265.166456 
L 443.451223 -264.356852 
L 444.281081 -263.547248 
L 445.11094 -262.737645 
L 445.940798 -261.928041 
L 446.770656 -261.118437 
L 447.600515 -260.308833 
L 448.430373 -259.499229 
L 449.260232 -258.689626 
L 450.09009 -257.880022 
L 450.919949 -257.070418 
L 451.749807 -256.260814 
L 452.579665 -255.45121 
L 453.409524 -254.641606 
L 454.239382 -253.832003 
L 455.069241 -253.022399 
L 455.899099 -252.705378 
L 456.728958 -252.422112 
L 457.558816 -252.138847 
L 458.388674 -251.855582 
L 459.218533 -251.572316 
L 460.048391 -251.289051 
L 460.87825 -251.005786 
L 461.708108 -250.72252 
L 462.537967 -250.439255 
L 463.367825 -250.15599 
L 464.197683 -249.872724 
L 465.027542 -249.589459 
L 465.8574 -249.306194 
L 466.687259 -249.022928 
L 467.517117 -248.739663 
L 468.346976 -248.456398 
L 469.176834 -248.173132 
L 470.006692 -247.889867 
L 470.836551 -247.606601 
L 471.666409 -247.323336 
L 472.496268 -247.040071 
L 473.326126 -246.756805 
L 474.155985 -246.47354 
L 474.985843 -246.190275 
L 475.815701 -245.907009 
L 476.64556 -245.623744 
L 477.475418 -245.340479 
L 478.305277 -245.057213 
L 479.135135 -244.773948 
L 479.964994 -244.490683 
L 480.794852 -244.207417 
L 481.62471 -243.924152 
L 482.454569 -243.640887 
L 483.284427 -243.357621 
L 484.114286 -243.074356 
L 484.944144 -242.79109 
L 485.774003 -242.507825 
L 486.603861 -242.22456 
L 487.433719 -241.941294 
L 488.263578 -241.658029 
L 489.093436 -241.374764 
L 489.923295 -241.091498 
L 490.753153 -240.808233 
L 491.583012 -240.524968 
L 492.41287 -240.241702 
L 493.242728 -239.958437 
L 494.072587 -239.675172 
L 494.902445 -239.391906 
L 495.732304 -239.108641 
L 496.562162 -238.825376 
L 497.392021 -238.54211 
L 498.221879 -238.258845 
L 499.051737 -237.97558 
L 499.881596 -237.692314 
L 500.711454 -237.409049 
L 501.541313 -237.125783 
L 502.371171 -236.842518 
L 503.20103 -236.559253 
L 504.030888 -236.275987 
L 504.860746 -235.992722 
L 505.690605 -235.709457 
L 506.520463 -235.426191 
L 507.350322 -235.142926 
L 508.18018 -234.859661 
L 509.010039 -234.576395 
L 509.839897 -234.29313 
L 510.669755 -234.009865 
L 511.499614 -233.726599 
L 512.329472 -233.443334 
L 513.159331 -233.160069 
L 513.989189 -232.876803 
L 514.819048 -232.593538 
L 515.648906 -232.310272 
L 516.478764 -232.027007 
L 517.308623 -231.743742 
L 518.138481 -231.460476 
L 518.96834 -231.177211 
L 519.798198 -230.893946 
L 520.628057 -230.61068 
L 521.457915 -230.327415 
L 522.287773 -230.04415 
L 523.117632 -229.760884 
L 523.94749 -229.477619 
L 524.777349 -229.194354 
L 525.607207 -228.911088 
L 526.437066 -228.627823 
L 527.266924 -228.344558 
L 528.096782 -228.061292 
L 528.926641 -227.778027 
L 529.756499 -227.494762 
L 530.586358 -227.211496 
L 531.416216 -226.928231 
L 532.246075 -226.644965 
L 533.075933 -226.3617 
L 533.905792 -226.078435 
L 534.73565 -225.795169 
L 535.565508 -225.511904 
L 536.395367 -225.228639 
L 537.225225 -224.945373 
L 538.055084 -224.662108 
L 538.884942 -224.378843 
L 539.714801 -224.095577 
L 540.544659 -223.812312 
L 541.374517 -223.529047 
L 542.204376 -223.245781 
L 543.034234 -222.962516 
L 543.864093 -222.679251 
L 544.693951 -222.395985 
L 545.52381 -222.11272 
L 546.353668 -221.829454 
L 547.183526 -221.546189 
L 548.013385 -221.262924 
L 548.843243 -220.979658 
L 549.673102 -220.696393 
L 550.50296 -220.413128 
L 551.332819 -220.129862 
L 552.162677 -219.846597 
L 552.992535 -219.563332 
L 553.822394 -219.280066 
L 554.652252 -218.996801 
L 555.482111 -218.713536 
L 556.311969 -218.43027 
L 557.141828 -218.147005 
L 557.971686 -217.86374 
L 558.801544 -217.580474 
L 559.631403 -217.297209 
L 560.461261 -217.013944 
L 561.29112 -216.730678 
L 562.120978 -216.447413 
L 562.950837 -216.164147 
L 563.780695 -215.880882 
L 564.610553 -215.597617 
L 565.440412 -215.314351 
L 566.27027 -215.031086 
L 567.100129 -214.747821 
L 567.929987 -214.464555 
L 568.759846 -214.18129 
L 569.589704 -213.898025 
L 570.419562 -213.614759 
L 571.249421 -213.331494 
L 572.079279 -213.048229 
L 572.909138 -212.764963 
L 573.738996 -212.481698 
L 574.568855 -212.198433 
L 575.398713 -211.915167 
L 576.228571 -211.631902 
L 577.05843 -211.348636 
L 577.888288 -211.065371 
L 578.718147 -210.782106 
L 579.548005 -210.49884 
L 580.377864 -210.215575 
L 581.207722 -209.93231 
L 582.03758 -209.649044 
L 582.867439 -209.365779 
L 583.697297 -209.082514 
L 584.527156 -208.799248 
L 585.357014 -208.515983 
L 586.186873 -208.232718 
L 587.016731 -207.949452 
L 587.846589 -207.666187 
L 588.676448 -207.382922 
L 589.506306 -207.099656 
L 590.336165 -206.816391 
L 591.166023 -206.533126 
L 591.995882 -206.24986 
L 592.82574 -205.966595 
L 593.655598 -205.683329 
L 594.485457 -205.400064 
L 595.315315 -205.116799 
L 596.145174 -204.833533 
L 596.975032 -204.550268 
L 597.804891 -204.267003 
L 598.634749 -203.983737 
L 599.464607 -203.700472 
L 600.294466 -203.417207 
L 601.124324 -203.133941 
L 601.954183 -202.850676 
L 602.784041 -202.567411 
L 603.6139 -202.284145 
L 604.443758 -202.00088 
L 605.273616 -201.717615 
L 606.103475 -201.434349 
L 606.933333 -201.151084 
L 607.763192 -200.867818 
L 608.59305 -200.584553 
L 609.422909 -200.301288 
L 610.252767 -200.018022 
L 611.082625 -199.734757 
L 611.912484 -199.451492 
L 612.742342 -199.168226 
L 613.572201 -198.884961 
L 614.402059 -198.601696 
L 615.231918 -198.31843 
L 616.061776 -198.035165 
L 616.891634 -197.7519 
L 617.721493 -197.468634 
L 618.551351 -197.185369 
L 619.38121 -196.902104 
L 620.211068 -196.618838 
L 621.040927 -196.335573 
L 621.870785 -196.052308 
L 622.700644 -195.769042 
L 623.530502 -195.485777 
L 624.36036 -195.202511 
L 625.190219 -194.919246 
L 626.020077 -194.635981 
L 626.849936 -194.352715 
L 627.679794 -194.06945 
L 628.509653 -193.786185 
L 629.339511 -193.502919 
L 630.169369 -193.219654 
L 630.999228 -192.936389 
L 631.829086 -192.653123 
L 632.658945 -192.369858 
L 633.488803 -192.086593 
L 634.318662 -191.803327 
L 635.14852 -191.520062 
L 635.978378 -191.236797 
L 636.808237 -190.953531 
L 637.638095 -190.670266 
L 638.467954 -190.387 
L 639.297812 -190.103735 
L 640.127671 -189.82047 
L 640.957529 -189.537204 
L 641.787387 -189.253939 
L 642.617246 -188.970674 
L 643.447104 -188.687408 
L 644.276963 -188.404143 
L 645.106821 -188.120878 
L 645.93668 -187.837612 
L 646.766538 -187.554347 
L 647.596396 -187.271082 
L 648.426255 -186.987816 
L 649.256113 -186.704551 
L 650.085972 -186.421286 
L 650.91583 -186.13802 
L 651.745689 -185.854755 
L 652.575547 -185.57149 
L 653.405405 -185.288224 
L 654.235264 -185.004959 
L 655.065122 -184.721693 
L 655.894981 -184.438428 
L 656.724839 -184.155163 
L 657.554698 -183.871897 
L 658.384556 -183.588632 
L 659.214414 -183.305367 
L 660.044273 -183.022101 
L 660.874131 -182.738836 
L 661.70399 -182.455571 
L 662.533848 -182.172305 
L 663.363707 -181.88904 
L 664.193565 -181.605775 
L 665.023423 -181.322509 
L 665.853282 -181.039244 
L 666.68314 -180.755979 
L 667.512999 -180.472713 
L 668.342857 -180.189448 
L 669.172716 -179.906183 
L 670.002574 -179.622917 
L 670.832432 -179.339652 
L 671.662291 -179.056386 
L 672.492149 -178.773121 
L 673.322008 -178.489856 
L 674.151866 -178.20659 
L 674.981725 -177.923325 
L 675.811583 -177.64006 
L 676.641441 -177.356794 
L 677.4713 -177.073529 
L 678.301158 -176.790264 
L 679.131017 -176.506998 
L 679.960875 -176.223733 
L 680.790734 -175.940468 
L 681.620592 -175.657202 
L 682.45045 -175.373937 
L 683.280309 -175.090672 
L 684.110167 -174.807406 
L 684.940026 -174.524141 
L 685.769884 -174.240875 
L 686.599743 -173.95761 
L 687.429601 -173.674345 
L 688.259459 -173.391079 
L 689.089318 -173.107814 
L 689.919176 -172.824549 
L 690.749035 -172.541283 
L 691.578893 -172.258018 
L 692.408752 -171.974753 
L 693.23861 -171.691487 
L 694.068468 -171.408222 
L 694.898327 -171.124957 
L 695.728185 -170.841691 
L 696.558044 -170.558426 
L 697.387902 -170.275161 
L 698.217761 -169.991895 
L 699.047619 -169.70863 
L 699.877477 -169.425365 
L 700.707336 -169.142099 
L 701.537194 -168.858834 
L 702.367053 -168.575568 
L 703.196911 -168.292303 
L 704.02677 -168.009038 
L 704.856628 -167.725772 
L 705.686486 -167.442507 
L 706.516345 -167.159242 
L 707.346203 -166.875976 
L 708.176062 -166.592711 
L 709.00592 -166.309446 
L 709.835779 -166.02618 
L 710.665637 -165.742915 
L 711.495495 -165.45965 
L 712.325354 -165.176384 
L 713.155212 -164.893119 
L 713.985071 -164.609854 
L 714.814929 -164.326588 
L 715.644788 -164.043323 
L 716.474646 -163.760057 
L 717.304505 -163.476792 
L 718.134363 -163.193527 
L 718.964221 -162.910261 
L 719.79408 -162.626996 
L 720.623938 -162.343731 
L 721.453797 -162.060465 
L 722.283655 -161.7772 
L 723.113514 -161.493935 
L 723.943372 -161.210669 
L 724.77323 -160.927404 
L 725.603089 -160.644139 
L 726.432947 -160.360873 
L 727.262806 -160.077608 
L 728.092664 -159.794343 
L 728.922523 -159.511077 
L 729.752381 -159.227812 
L 730.582239 -158.944547 
L 731.412098 -158.661281 
L 732.241956 -158.378016 
L 733.071815 -158.09475 
L 733.901673 -157.811485 
L 734.731532 -157.52822 
L 735.56139 -157.244954 
L 736.391248 -156.961689 
L 737.221107 -156.678424 
L 738.050965 -156.395158 
L 738.880824 -156.111893 
L 739.710682 -155.828628 
L 740.540541 -155.545362 
L 741.370399 -155.262097 
L 742.200257 -154.978832 
L 743.030116 -154.695566 
L 743.859974 -154.412301 
L 744.689833 -154.129036 
L 745.519691 -153.84577 
L 746.34955 -153.562505 
L 747.179408 -153.279239 
L 748.009266 -152.995974 
L 748.839125 -152.712709 
L 749.668983 -152.429443 
L 750.498842 -152.146178 
L 751.3287 -151.862913 
L 752.158559 -151.579647 
L 752.988417 -151.296382 
L 753.818275 -151.013117 
L 754.648134 -150.729851 
L 755.477992 -150.446586 
L 756.307851 -150.163321 
L 757.137709 -149.880055 
L 757.967568 -149.59679 
L 758.797426 -149.313525 
L 759.627284 -149.030259 
L 760.457143 -148.746994 
L 761.287001 -148.463729 
L 762.11686 -148.180463 
L 762.946718 -147.897198 
L 763.776577 -147.613932 
L 764.606435 -147.330667 
L 765.436293 -147.047402 
L 766.266152 -146.764136 
L 767.09601 -146.480871 
L 767.925869 -146.197606 
L 768.755727 -145.91434 
L 769.585586 -145.631075 
L 770.415444 -145.34781 
L 771.245302 -145.064544 
L 772.075161 -144.781279 
L 772.905019 -144.498014 
L 773.734878 -144.214748 
L 774.564736 -143.931483 
L 775.394595 -143.648218 
L 776.224453 -143.364952 
L 777.054311 -143.081687 
L 777.88417 -142.798421 
L 778.714028 -142.515156 
L 779.543887 -142.231891 
L 780.373745 -141.948625 
L 781.203604 -141.66536 
L 782.033462 -141.382095 
L 782.86332 -141.098829 
L 783.693179 -140.815564 
L 784.523037 -140.532299 
L 785.352896 -140.249033 
L 786.182754 -139.965768 
L 787.012613 -139.682503 
L 787.842471 -139.399237 
L 788.672329 -139.115972 
L 789.502188 -138.832707 
L 790.332046 -138.549441 
L 791.161905 -138.266176 
L 791.991763 -137.982911 
L 792.821622 -137.699645 
L 793.65148 -137.41638 
L 794.481338 -137.133114 
L 795.311197 -136.849849 
L 796.141055 -136.566584 
L 796.970914 -136.283318 
L 797.800772 -136.000053 
L 798.630631 -135.716788 
L 799.460489 -135.433522 
L 800.290347 -135.150257 
L 801.120206 -134.866992 
L 801.950064 -134.583726 
L 802.779923 -134.300461 
L 803.609781 -134.017196 
L 804.43964 -133.73393 
L 805.269498 -133.450665 
L 806.099356 -133.1674 
L 806.929215 -132.884134 
L 807.759073 -132.600869 
L 808.588932 -132.317603 
L 809.41879 -132.034338 
L 810.248649 -131.751073 
L 811.078507 -131.467807 
L 811.908366 -131.184542 
L 812.738224 -130.901277 
L 813.568082 -130.618011 
L 814.397941 -130.334746 
L 815.227799 -130.051481 
L 816.057658 -129.768215 
L 816.887516 -129.48495 
L 817.717375 -129.201685 
L 818.547233 -128.918419 
L 819.377091 -128.635154 
L 820.20695 -128.351889 
L 821.036808 -128.068623 
L 821.866667 -127.785358 
L 822.696525 -127.502093 
L 823.526384 -127.218827 
L 824.356242 -126.935562 
L 825.1861 -126.652296 
L 826.015959 -126.369031 
L 826.845817 -126.085766 
L 827.675676 -125.8025 
L 828.505534 -125.519235 
L 829.335393 -125.23597 
L 830.165251 -124.952704 
L 830.995109 -124.669439 
L 831.824968 -124.386174 
L 832.654826 -124.102908 
L 833.484685 -123.819643 
L 834.314543 -123.536378 
L 835.144402 -123.253112 
L 835.97426 -122.969847 
L 836.804118 -122.686582 
L 837.633977 -122.403316 
L 838.463835 -122.120051 
L 839.293694 -121.836785 
L 840.123552 -121.55352 
L 840.953411 -121.270255 
L 841.783269 -120.986989 
L 842.613127 -120.703724 
L 843.442986 -120.420459 
L 844.272844 -120.137193 
L 845.102703 -119.853928 
L 845.932561 -119.570663 
L 846.76242 -119.287397 
L 847.592278 -119.004132 
L 848.422136 -118.720867 
L 849.251995 -118.437601 
L 850.081853 -118.154336 
L 850.911712 -117.871071 
L 851.74157 -117.587805 
L 852.571429 -117.30454 
L 853.401287 -117.021275 
L 854.231145 -116.738009 
L 855.061004 -116.454744 
L 855.890862 -116.171478 
L 856.720721 -115.888213 
L 857.550579 -115.604948 
L 858.380438 -115.321682 
L 859.210296 -115.038417 
L 860.040154 -114.755152 
L 860.870013 -114.471886 
L 861.699871 -114.188621 
L 862.52973 -113.905356 
L 863.359588 -113.62209 
L 864.189447 -113.338825 
L 865.019305 -113.05556 
L 865.849163 -112.772294 
L 866.679022 -112.489029 
L 867.50888 -112.205764 
L 868.338739 -111.922498 
L 869.168597 -111.639233 
L 869.998456 -111.355968 
L 870.828314 -111.072702 
L 871.658172 -110.789437 
L 872.488031 -110.506171 
L 873.317889 -110.222906 
L 874.147748 -109.939641 
L 874.977606 -109.656375 
L 875.807465 -109.37311 
L 876.637323 -109.089845 
L 877.467181 -108.806579 
L 878.29704 -108.523314 
L 879.126898 -108.240049 
L 879.956757 -107.956783 
L 880.786615 -107.673518 
L 881.616474 -107.390253 
L 882.446332 -107.106987 
L 883.27619 -106.823722 
L 884.106049 -106.540457 
L 884.935907 -106.257191 
L 885.765766 -105.973926 
L 886.595624 -105.69066 
L 887.425483 -105.407395 
L 888.255341 -105.12413 
L 889.085199 -104.840864 
L 889.915058 -104.557599 
L 890.744916 -104.274334 
L 891.574775 -103.991068 
L 892.404633 -103.707803 
L 893.234492 -103.424538 
L 894.06435 -103.141272 
L 894.894208 -102.858007 
L 895.724067 -102.574742 
L 896.553925 -102.291476 
L 897.383784 -102.008211 
L 898.213642 -101.724946 
L 899.043501 -101.44168 
L 899.873359 -101.158415 
L 900.703218 -100.87515 
L 901.533076 -100.591884 
L 902.362934 -100.308619 
L 903.192793 -100.025353 
L 904.022651 -99.742088 
L 904.85251 -99.458823 
L 905.682368 -99.175557 
L 906.512227 -98.892292 
L 907.342085 -98.609027 
L 908.171943 -98.325761 
L 909.001802 -98.042496 
L 909.83166 -97.759231 
L 910.661519 -97.475965 
L 911.491377 -97.1927 
L 912.321236 -96.909435 
L 913.151094 -96.626169 
L 913.980952 -96.342904 
L 914.810811 -96.059639 
L 915.640669 -95.776373 
L 916.470528 -95.493108 
L 917.300386 -95.209842 
L 918.130245 -94.926577 
L 918.960103 -94.643312 
L 919.789961 -94.360046 
L 920.61982 -94.076781 
L 921.449678 -93.793516 
L 922.279537 -93.51025 
L 923.109395 -93.226985 
L 923.939254 -92.94372 
L 924.769112 -92.660454 
L 925.59897 -92.377189 
L 926.428829 -92.093924 
L 927.258687 -91.810658 
L 928.088546 -91.527393 
L 928.918404 -91.244128 
L 929.748263 -90.960862 
L 930.578121 -90.677597 
L 931.407979 -90.394332 
L 932.237838 -90.111066 
L 933.067696 -89.827801 
L 933.897555 -89.544535 
L 934.727413 -89.26127 
L 935.557272 -88.978005 
L 936.38713 -88.694739 
L 937.216988 -88.411474 
L 938.046847 -88.128209 
L 938.876705 -87.844943 
L 939.706564 -87.561678 
L 940.536422 -87.278413 
L 941.366281 -86.995147 
L 942.196139 -86.711882 
L 943.025997 -86.428617 
L 943.855856 -86.145351 
L 944.685714 -85.862086 
L 945.515573 -85.578821 
L 946.345431 -85.295555 
L 947.17529 -85.01229 
L 948.005148 -84.729024 
L 948.835006 -84.445759 
L 949.664865 -84.162494 
L 950.494723 -83.879228 
L 951.324582 -83.595963 
L 952.15444 -83.312698 
L 952.984299 -83.029432 
L 953.814157 -82.746167 
L 954.644015 -82.462902 
L 955.473874 -82.179636 
L 956.303732 -81.896371 
L 957.133591 -81.613106 
L 957.963449 -81.32984 
L 958.793308 -81.046575 
L 959.623166 -80.76331 
L 960.453024 -80.480044 
L 961.282883 -80.196779 
L 962.112741 -79.913514 
L 962.9426 -79.630248 
L 963.772458 -79.346983 
L 964.602317 -79.063717 
L 965.432175 -78.780452 
L 966.262033 -78.497187 
L 967.091892 -78.213921 
L 967.92175 -77.930656 
L 968.751609 -77.647391 
L 969.581467 -77.364125 
L 970.411326 -77.08086 
L 971.241184 -76.797595 
L 972.071042 -76.514329 
L 972.900901 -76.231064 
L 973.730759 -75.947799 
L 974.560618 -75.664533 
L 975.390476 -75.381268 
L 976.220335 -75.098003 
L 977.050193 -74.814737 
L 977.880051 -74.531472 
L 978.70991 -74.248206 
L 979.539768 -73.964941 
L 980.369627 -73.681676 
L 981.199485 -73.39841 
L 982.029344 -73.115145 
L 982.859202 -72.83188 
L 983.68906 -72.548614 
L 984.518919 -72.265349 
L 985.348777 -71.982084 
L 986.178636 -71.698818 
L 987.008494 -71.415553 
L 987.838353 -71.132288 
L 988.668211 -70.849022 
L 989.498069 -70.565757 
L 990.327928 -70.282492 
L 991.157786 -69.999226 
L 991.987645 -69.715961 
L 992.817503 -69.432696 
L 993.647362 -69.14943 
L 994.47722 -68.866165 
L 995.307079 -68.582899 
L 996.136937 -68.299634 
L 996.966795 -68.016369 
L 997.796654 -67.733103 
L 998.626512 -67.449838 
L 999.456371 -67.166573 
L 1000.286229 -66.883307 
L 1001.116088 -66.600042 
L 1001.945946 -66.316777 
L 1002.775804 -66.033511 
L 1003.605663 -65.750246 
L 1004.435521 -65.466981 
L 1005.26538 -65.183715 
L 1006.095238 -64.90045 
L 1006.925097 -64.617185 
L 1007.754955 -64.333919 
L 1008.584813 -64.050654 
L 1009.414672 -63.767388 
L 1010.24453 -63.484123 
L 1011.074389 -63.200858 
L 1011.904247 -62.917592 
L 1012.734106 -62.634327 
L 1013.563964 -62.351062 
L 1014.393822 -62.067796 
L 1015.223681 -61.784531 
L 1016.053539 -61.501266 
L 1016.883398 -61.218 
L 1017.713256 -60.934735 
L 1018.543115 -60.65147 
L 1019.372973 -60.368204 
L 1020.202831 -60.084939 
L 1021.03269 -59.801674 
L 1021.862548 -59.518408 
L 1022.692407 -59.235143 
L 1023.522265 -58.951878 
L 1024.352124 -58.668612 
L 1025.181982 -58.385347 
L 1026.01184 -58.102081 
L 1026.841699 -57.818816 
L 1027.671557 -57.535551 
L 1028.501416 -57.252285 
L 1029.331274 -56.96902 
L 1030.161133 -56.685755 
L 1030.990991 -56.402489 
L 1031.820849 -56.119224 
L 1032.650708 -55.835959 
L 1033.480566 -55.552693 
L 1034.310425 -55.269428 
L 1035.140283 -54.986163 
L 1035.970142 -54.702897 
L 1036.8 -54.419632 
L 1036.8 -54.419632 
L 1036.8 -54.419632 
L 1035.970142 -54.702897 
L 1035.140283 -54.986163 
L 1034.310425 -55.269428 
L 1033.480566 -55.552693 
L 1032.650708 -55.835959 
L 1031.820849 -56.119224 
L 1030.990991 -56.402489 
L 1030.161133 -56.685755 
L 1029.331274 -56.96902 
L 1028.501416 -57.252285 
L 1027.671557 -57.535551 
L 1026.841699 -57.818816 
L 1026.01184 -58.102081 
L 1025.181982 -58.385347 
L 1024.352124 -58.668612 
L 1023.522265 -58.951878 
L 1022.692407 -59.235143 
L 1021.862548 -59.518408 
L 1021.03269 -59.801674 
L 1020.202831 -60.084939 
L 1019.372973 -60.368204 
L 1018.543115 -60.65147 
L 1017.713256 -60.934735 
L 1016.883398 -61.218 
L 1016.053539 -61.501266 
L 1015.223681 -61.784531 
L 1014.393822 -62.067796 
L 1013.563964 -62.351062 
L 1012.734106 -62.634327 
L 1011.904247 -62.917592 
L 1011.074389 -63.200858 
L 1010.24453 -63.484123 
L 1009.414672 -63.767388 
L 1008.584813 -64.050654 
L 1007.754955 -64.333919 
L 1006.925097 -64.617185 
L 1006.095238 -64.90045 
L 1005.26538 -65.183715 
L 1004.435521 -65.466981 
L 1003.605663 -65.750246 
L 1002.775804 -66.033511 
L 1001.945946 -66.316777 
L 1001.116088 -66.600042 
L 1000.286229 -66.883307 
L 999.456371 -67.166573 
L 998.626512 -67.449838 
L 997.796654 -67.733103 
L 996.966795 -68.016369 
L 996.136937 -68.299634 
L 995.307079 -68.582899 
L 994.47722 -68.866165 
L 993.647362 -69.14943 
L 992.817503 -69.432696 
L 991.987645 -69.715961 
L 991.157786 -69.999226 
L 990.327928 -70.282492 
L 989.498069 -70.565757 
L 988.668211 -70.849022 
L 987.838353 -71.132288 
L 987.008494 -71.415553 
L 986.178636 -71.698818 
L 985.348777 -71.982084 
L 984.518919 -72.265349 
L 983.68906 -72.548614 
L 982.859202 -72.83188 
L 982.029344 -73.115145 
L 981.199485 -73.39841 
L 980.369627 -73.681676 
L 979.539768 -73.964941 
L 978.70991 -74.248206 
L 977.880051 -74.531472 
L 977.050193 -74.814737 
L 976.220335 -75.098003 
L 975.390476 -75.381268 
L 974.560618 -75.664533 
L 973.730759 -75.947799 
L 972.900901 -76.231064 
L 972.071042 -76.514329 
L 971.241184 -76.797595 
L 970.411326 -77.08086 
L 969.581467 -77.364125 
L 968.751609 -77.647391 
L 967.92175 -77.930656 
L 967.091892 -78.213921 
L 966.262033 -78.497187 
L 965.432175 -78.780452 
L 964.602317 -79.063717 
L 963.772458 -79.346983 
L 962.9426 -79.630248 
L 962.112741 -79.913514 
L 961.282883 -80.196779 
L 960.453024 -80.480044 
L 959.623166 -80.76331 
L 958.793308 -81.046575 
L 957.963449 -81.32984 
L 957.133591 -81.613106 
L 956.303732 -81.896371 
L 955.473874 -82.179636 
L 954.644015 -82.462902 
L 953.814157 -82.746167 
L 952.984299 -83.029432 
L 952.15444 -83.312698 
L 951.324582 -83.595963 
L 950.494723 -83.879228 
L 949.664865 -84.162494 
L 948.835006 -84.445759 
L 948.005148 -84.729024 
L 947.17529 -85.01229 
L 946.345431 -85.295555 
L 945.515573 -85.578821 
L 944.685714 -85.862086 
L 943.855856 -86.145351 
L 943.025997 -86.428617 
L 942.196139 -86.711882 
L 941.366281 -86.995147 
L 940.536422 -87.278413 
L 939.706564 -87.561678 
L 938.876705 -87.844943 
L 938.046847 -88.128209 
L 937.216988 -88.411474 
L 936.38713 -88.694739 
L 935.557272 -88.978005 
L 934.727413 -89.26127 
L 933.897555 -89.544535 
L 933.067696 -89.827801 
L 932.237838 -90.111066 
L 931.407979 -90.394332 
L 930.578121 -90.677597 
L 929.748263 -90.960862 
L 928.918404 -91.244128 
L 928.088546 -91.527393 
L 927.258687 -91.810658 
L 926.428829 -92.093924 
L 925.59897 -92.377189 
L 924.769112 -92.660454 
L 923.939254 -92.94372 
L 923.109395 -93.226985 
L 922.279537 -93.51025 
L 921.449678 -93.793516 
L 920.61982 -94.076781 
L 919.789961 -94.360046 
L 918.960103 -94.643312 
L 918.130245 -94.926577 
L 917.300386 -95.209842 
L 916.470528 -95.493108 
L 915.640669 -95.776373 
L 914.810811 -96.059639 
L 913.980952 -96.342904 
L 913.151094 -96.626169 
L 912.321236 -96.909435 
L 911.491377 -97.1927 
L 910.661519 -97.475965 
L 909.83166 -97.759231 
L 909.001802 -98.042496 
L 908.171943 -98.325761 
L 907.342085 -98.609027 
L 906.512227 -98.892292 
L 905.682368 -99.175557 
L 904.85251 -99.458823 
L 904.022651 -99.742088 
L 903.192793 -100.025353 
L 902.362934 -100.308619 
L 901.533076 -100.591884 
L 900.703218 -100.87515 
L 899.873359 -101.158415 
L 899.043501 -101.509591 
L 898.213642 -101.937498 
L 897.383784 -102.365405 
L 896.553925 -102.793313 
L 895.724067 -103.22122 
L 894.894208 -103.649128 
L 894.06435 -104.077035 
L 893.234492 -104.504942 
L 892.404633 -104.93285 
L 891.574775 -105.360757 
L 890.744916 -105.788665 
L 889.915058 -106.216572 
L 889.085199 -106.644479 
L 888.255341 -107.072387 
L 887.425483 -107.500294 
L 886.595624 -107.928202 
L 885.765766 -108.356109 
L 884.935907 -108.784016 
L 884.106049 -109.211924 
L 883.27619 -109.639831 
L 882.446332 -110.067739 
L 881.616474 -110.495646 
L 880.786615 -110.923553 
L 879.956757 -111.351461 
L 879.126898 -111.779368 
L 878.29704 -112.207276 
L 877.467181 -112.635183 
L 876.637323 -113.06309 
L 875.807465 -113.490998 
L 874.977606 -113.918905 
L 874.147748 -114.346813 
L 873.317889 -114.77472 
L 872.488031 -115.202627 
L 871.658172 -115.630535 
L 870.828314 -116.058442 
L 869.998456 -116.48635 
L 869.168597 -116.914257 
L 868.338739 -117.342164 
L 867.50888 -117.770072 
L 866.679022 -118.197979 
L 865.849163 -118.625887 
L 865.019305 -119.053794 
L 864.189447 -119.481701 
L 863.359588 -119.909609 
L 862.52973 -120.337516 
L 861.699871 -120.765424 
L 860.870013 -121.193331 
L 860.040154 -121.621238 
L 859.210296 -122.049146 
L 858.380438 -122.477053 
L 857.550579 -122.904961 
L 856.720721 -123.332868 
L 855.890862 -123.760775 
L 855.061004 -124.188683 
L 854.231145 -124.61659 
L 853.401287 -125.044498 
L 852.571429 -125.472405 
L 851.74157 -125.900312 
L 850.911712 -126.32822 
L 850.081853 -126.756127 
L 849.251995 -127.184035 
L 848.422136 -127.611942 
L 847.592278 -128.039849 
L 846.76242 -128.467757 
L 845.932561 -128.895664 
L 845.102703 -129.323572 
L 844.272844 -129.751479 
L 843.442986 -130.179386 
L 842.613127 -130.607294 
L 841.783269 -131.035201 
L 840.953411 -131.463109 
L 840.123552 -131.891016 
L 839.293694 -132.318923 
L 838.463835 -132.746831 
L 837.633977 -133.174738 
L 836.804118 -133.602646 
L 835.97426 -134.030553 
L 835.144402 -134.45846 
L 834.314543 -134.886368 
L 833.484685 -135.314275 
L 832.654826 -135.742183 
L 831.824968 -136.17009 
L 830.995109 -136.597997 
L 830.165251 -137.025905 
L 829.335393 -137.453812 
L 828.505534 -137.88172 
L 827.675676 -138.309627 
L 826.845817 -138.737534 
L 826.015959 -139.165442 
L 825.1861 -139.593349 
L 824.356242 -140.021257 
L 823.526384 -140.449164 
L 822.696525 -140.877072 
L 821.866667 -141.304979 
L 821.036808 -141.732886 
L 820.20695 -142.160794 
L 819.377091 -142.588701 
L 818.547233 -143.016609 
L 817.717375 -143.444516 
L 816.887516 -143.872423 
L 816.057658 -144.300331 
L 815.227799 -144.728238 
L 814.397941 -145.156146 
L 813.568082 -145.584053 
L 812.738224 -146.01196 
L 811.908366 -146.439868 
L 811.078507 -146.867775 
L 810.248649 -147.295683 
L 809.41879 -147.72359 
L 808.588932 -148.151497 
L 807.759073 -148.579405 
L 806.929215 -149.007312 
L 806.099356 -149.43522 
L 805.269498 -149.863127 
L 804.43964 -150.291034 
L 803.609781 -150.718942 
L 802.779923 -151.146849 
L 801.950064 -151.574757 
L 801.120206 -152.002664 
L 800.290347 -152.430571 
L 799.460489 -152.858479 
L 798.630631 -153.286386 
L 797.800772 -153.714294 
L 796.970914 -154.142201 
L 796.141055 -154.570108 
L 795.311197 -154.998016 
L 794.481338 -155.425923 
L 793.65148 -155.853831 
L 792.821622 -156.281738 
L 791.991763 -156.709645 
L 791.161905 -157.137553 
L 790.332046 -157.56546 
L 789.502188 -157.993368 
L 788.672329 -158.421275 
L 787.842471 -158.849182 
L 787.012613 -159.27709 
L 786.182754 -159.704997 
L 785.352896 -160.132905 
L 784.523037 -160.560812 
L 783.693179 -160.988719 
L 782.86332 -161.416627 
L 782.033462 -161.844534 
L 781.203604 -162.272442 
L 780.373745 -162.700349 
L 779.543887 -163.128256 
L 778.714028 -163.556164 
L 777.88417 -163.984071 
L 777.054311 -164.411979 
L 776.224453 -164.839886 
L 775.394595 -165.267793 
L 774.564736 -165.695701 
L 773.734878 -166.123608 
L 772.905019 -166.551516 
L 772.075161 -166.979423 
L 771.245302 -167.40733 
L 770.415444 -167.835238 
L 769.585586 -168.263145 
L 768.755727 -168.691053 
L 767.925869 -169.11896 
L 767.09601 -169.546867 
L 766.266152 -169.974775 
L 765.436293 -170.402682 
L 764.606435 -170.83059 
L 763.776577 -171.258497 
L 762.946718 -171.686404 
L 762.11686 -172.114312 
L 761.287001 -172.542219 
L 760.457143 -172.970127 
L 759.627284 -173.398034 
L 758.797426 -173.825941 
L 757.967568 -174.253849 
L 757.137709 -174.681756 
L 756.307851 -175.109664 
L 755.477992 -175.537571 
L 754.648134 -175.965478 
L 753.818275 -176.393386 
L 752.988417 -176.821293 
L 752.158559 -177.249201 
L 751.3287 -177.677108 
L 750.498842 -178.105015 
L 749.668983 -178.532923 
L 748.839125 -178.96083 
L 748.009266 -179.388738 
L 747.179408 -179.816645 
L 746.34955 -180.244552 
L 745.519691 -180.67246 
L 744.689833 -181.100367 
L 743.859974 -181.528275 
L 743.030116 -181.956182 
L 742.200257 -182.384089 
L 741.370399 -182.811997 
L 740.540541 -183.239904 
L 739.710682 -183.667812 
L 738.880824 -184.095719 
L 738.050965 -184.523626 
L 737.221107 -184.951534 
L 736.391248 -185.379441 
L 735.56139 -185.807349 
L 734.731532 -186.235256 
L 733.901673 -186.663163 
L 733.071815 -187.091071 
L 732.241956 -187.518978 
L 731.412098 -187.946886 
L 730.582239 -188.374793 
L 729.752381 -188.8027 
L 728.922523 -189.230608 
L 728.092664 -189.658515 
L 727.262806 -190.086423 
L 726.432947 -190.51433 
L 725.603089 -190.942237 
L 724.77323 -191.370145 
L 723.943372 -191.798052 
L 723.113514 -192.22596 
L 722.283655 -192.653867 
L 721.453797 -193.081774 
L 720.623938 -193.509682 
L 719.79408 -193.937589 
L 718.964221 -194.365497 
L 718.134363 -194.793404 
L 717.304505 -195.221311 
L 716.474646 -195.649219 
L 715.644788 -196.077126 
L 714.814929 -196.505034 
L 713.985071 -196.932941 
L 713.155212 -197.360848 
L 712.325354 -197.788756 
L 711.495495 -198.216663 
L 710.665637 -198.644571 
L 709.835779 -199.072478 
L 709.00592 -199.500385 
L 708.176062 -199.928293 
L 707.346203 -200.3562 
L 706.516345 -200.784108 
L 705.686486 -201.212015 
L 704.856628 -201.639922 
L 704.02677 -202.06783 
L 703.196911 -202.495737 
L 702.367053 -202.923645 
L 701.537194 -203.351552 
L 700.707336 -203.779459 
L 699.877477 -204.207367 
L 699.047619 -204.635274 
L 698.217761 -205.063182 
L 697.387902 -205.491089 
L 696.558044 -205.918996 
L 695.728185 -206.346904 
L 694.898327 -206.774811 
L 694.068468 -207.202719 
L 693.23861 -207.630626 
L 692.408752 -208.058533 
L 691.578893 -208.486441 
L 690.749035 -208.914348 
L 689.919176 -209.342256 
L 689.089318 -209.770163 
L 688.259459 -210.19807 
L 687.429601 -210.625978 
L 686.599743 -211.053885 
L 685.769884 -211.481793 
L 684.940026 -211.9097 
L 684.110167 -212.337607 
L 683.280309 -212.765515 
L 682.45045 -213.193422 
L 681.620592 -213.62133 
L 680.790734 -214.049237 
L 679.960875 -214.477144 
L 679.131017 -214.905052 
L 678.301158 -215.332959 
L 677.4713 -215.760867 
L 676.641441 -216.188774 
L 675.811583 -216.616681 
L 674.981725 -217.044589 
L 674.151866 -217.472496 
L 673.322008 -217.900404 
L 672.492149 -218.328311 
L 671.662291 -218.756218 
L 670.832432 -219.184126 
L 670.002574 -219.612033 
L 669.172716 -220.039941 
L 668.342857 -220.467848 
L 667.512999 -220.895756 
L 666.68314 -221.323663 
L 665.853282 -221.75157 
L 665.023423 -222.179478 
L 664.193565 -222.607385 
L 663.363707 -223.035293 
L 662.533848 -223.4632 
L 661.70399 -223.891107 
L 660.874131 -224.319015 
L 660.044273 -224.746922 
L 659.214414 -225.17483 
L 658.384556 -225.602737 
L 657.554698 -226.030644 
L 656.724839 -226.458552 
L 655.894981 -226.886459 
L 655.065122 -227.314367 
L 654.235264 -227.742274 
L 653.405405 -228.170181 
L 652.575547 -228.598089 
L 651.745689 -229.025996 
L 650.91583 -229.453904 
L 650.085972 -229.881811 
L 649.256113 -230.309718 
L 648.426255 -230.737626 
L 647.596396 -231.165533 
L 646.766538 -231.593441 
L 645.93668 -232.021348 
L 645.106821 -232.449255 
L 644.276963 -232.877163 
L 643.447104 -233.30507 
L 642.617246 -233.732978 
L 641.787387 -234.160885 
L 640.957529 -234.588792 
L 640.127671 -235.0167 
L 639.297812 -235.444607 
L 638.467954 -235.872515 
L 637.638095 -236.300422 
L 636.808237 -236.728329 
L 635.978378 -237.156237 
L 635.14852 -237.584144 
L 634.318662 -238.012052 
L 633.488803 -238.439959 
L 632.658945 -238.867866 
L 631.829086 -239.295774 
L 630.999228 -239.723681 
L 630.169369 -240.151589 
L 629.339511 -240.579496 
L 628.509653 -241.007403 
L 627.679794 -241.435311 
L 626.849936 -241.863218 
L 626.020077 -242.291126 
L 625.190219 -242.719033 
L 624.36036 -243.14694 
L 623.530502 -243.574848 
L 622.700644 -244.002755 
L 621.870785 -244.430663 
L 621.040927 -244.85857 
L 620.211068 -245.286477 
L 619.38121 -245.714385 
L 618.551351 -246.142292 
L 617.721493 -246.5702 
L 616.891634 -246.998107 
L 616.061776 -247.426014 
L 615.231918 -247.853922 
L 614.402059 -248.281829 
L 613.572201 -248.709737 
L 612.742342 -249.137644 
L 611.912484 -249.565551 
L 611.082625 -249.993459 
L 610.252767 -250.421366 
L 609.422909 -250.849274 
L 608.59305 -251.277181 
L 607.763192 -251.705088 
L 606.933333 -252.132996 
L 606.103475 -252.560903 
L 605.273616 -252.988811 
L 604.443758 -253.416718 
L 603.6139 -253.844625 
L 602.784041 -254.272533 
L 601.954183 -254.70044 
L 601.124324 -255.128348 
L 600.294466 -255.556255 
L 599.464607 -255.984162 
L 598.634749 -256.41207 
L 597.804891 -256.839977 
L 596.975032 -257.267885 
L 596.145174 -257.695792 
L 595.315315 -258.123699 
L 594.485457 -258.551607 
L 593.655598 -258.979514 
L 592.82574 -259.407422 
L 591.995882 -259.835329 
L 591.166023 -260.263236 
L 590.336165 -260.691144 
L 589.506306 -261.119051 
L 588.676448 -261.546959 
L 587.846589 -261.974866 
L 587.016731 -262.402773 
L 586.186873 -262.830681 
L 585.357014 -263.258588 
L 584.527156 -263.686496 
L 583.697297 -264.114403 
L 582.867439 -264.54231 
L 582.03758 -264.970218 
L 581.207722 -265.398125 
L 580.377864 -265.826033 
L 579.548005 -266.25394 
L 578.718147 -266.681847 
L 577.888288 -267.109755 
L 577.05843 -267.537662 
L 576.228571 -267.96557 
L 575.398713 -268.393477 
L 574.568855 -268.821384 
L 573.738996 -269.249292 
L 572.909138 -269.677199 
L 572.079279 -270.105107 
L 571.249421 -270.533014 
L 570.419562 -270.960921 
L 569.589704 -271.388829 
L 568.759846 -271.816736 
L 567.929987 -272.244644 
L 567.100129 -272.672551 
L 566.27027 -273.100458 
L 565.440412 -273.528366 
L 564.610553 -273.956273 
L 563.780695 -274.384181 
L 562.950837 -274.812088 
L 562.120978 -275.239995 
L 561.29112 -275.667903 
L 560.461261 -276.09581 
L 559.631403 -276.523718 
L 558.801544 -276.951625 
L 557.971686 -277.379532 
L 557.141828 -277.80744 
L 556.311969 -278.235347 
L 555.482111 -278.663255 
L 554.652252 -279.091162 
L 553.822394 -279.519069 
L 552.992535 -279.946977 
L 552.162677 -280.374884 
L 551.332819 -280.802792 
L 550.50296 -281.230699 
L 549.673102 -281.658606 
L 548.843243 -282.086514 
L 548.013385 -282.514421 
L 547.183526 -282.942329 
L 546.353668 -283.370236 
L 545.52381 -283.798143 
L 544.693951 -284.226051 
L 543.864093 -284.653958 
L 543.034234 -285.081866 
L 542.204376 -285.509773 
L 541.374517 -285.93768 
L 540.544659 -286.365588 
L 539.714801 -286.793495 
L 538.884942 -287.221403 
L 538.055084 -287.64931 
L 537.225225 -288.077217 
L 536.395367 -288.505125 
L 535.565508 -288.933032 
L 534.73565 -289.36094 
L 533.905792 -289.788847 
L 533.075933 -290.216754 
L 532.246075 -290.644662 
L 531.416216 -291.072569 
L 530.586358 -291.500477 
L 529.756499 -291.928384 
L 528.926641 -292.356291 
L 528.096782 -292.784199 
L 527.266924 -293.212106 
L 526.437066 -293.640014 
L 525.607207 -294.067921 
L 524.777349 -294.495828 
L 523.94749 -294.923736 
L 523.117632 -295.351643 
L 522.287773 -295.779551 
L 521.457915 -296.207458 
L 520.628057 -296.635365 
L 519.798198 -297.063273 
L 518.96834 -297.49118 
L 518.138481 -297.919088 
L 517.308623 -298.346995 
L 516.478764 -298.774902 
L 515.648906 -299.20281 
L 514.819048 -299.630717 
L 513.989189 -300.058625 
L 513.159331 -300.486532 
L 512.329472 -300.91444 
L 511.499614 -301.342347 
L 510.669755 -301.770254 
L 509.839897 -302.198162 
L 509.010039 -302.626069 
L 508.18018 -303.053977 
L 507.350322 -303.481884 
L 506.520463 -303.909791 
L 505.690605 -304.337699 
L 504.860746 -304.765606 
L 504.030888 -305.193514 
L 503.20103 -305.621421 
L 502.371171 -306.049328 
L 501.541313 -306.477236 
L 500.711454 -306.905143 
L 499.881596 -307.333051 
L 499.051737 -307.760958 
L 498.221879 -308.188865 
L 497.392021 -308.616773 
L 496.562162 -309.04468 
L 495.732304 -309.472588 
L 494.902445 -309.900495 
L 494.072587 -310.328402 
L 493.242728 -310.75631 
L 492.41287 -311.184217 
L 491.583012 -311.612125 
L 490.753153 -312.040032 
L 489.923295 -312.467939 
L 489.093436 -312.895847 
L 488.263578 -313.323754 
L 487.433719 -313.751662 
L 486.603861 -314.179569 
L 485.774003 -314.607476 
L 484.944144 -315.035384 
L 484.114286 -315.463291 
L 483.284427 -315.891199 
L 482.454569 -316.319106 
L 481.62471 -316.747013 
L 480.794852 -317.174921 
L 479.964994 -317.602828 
L 479.135135 -318.030736 
L 478.305277 -318.458643 
L 477.475418 -318.88655 
L 476.64556 -319.314458 
L 475.815701 -319.742365 
L 474.985843 -320.170273 
L 474.155985 -320.59818 
L 473.326126 -321.026087 
L 472.496268 -321.453995 
L 471.666409 -321.881902 
L 470.836551 -322.30981 
L 470.006692 -322.737717 
L 469.176834 -323.165624 
L 468.346976 -323.593532 
L 467.517117 -324.021439 
L 466.687259 -324.449347 
L 465.8574 -324.877254 
L 465.027542 -325.305161 
L 464.197683 -325.733069 
L 463.367825 -326.160976 
L 462.537967 -326.588884 
L 461.708108 -327.016791 
L 460.87825 -327.444698 
L 460.048391 -327.872606 
L 459.218533 -328.300513 
L 458.388674 -328.728421 
L 457.558816 -329.156328 
L 456.728958 -329.584235 
L 455.899099 -330.012143 
L 455.069241 -330.44005 
L 454.239382 -330.867958 
L 453.409524 -331.295865 
L 452.579665 -331.723772 
L 451.749807 -332.15168 
L 450.919949 -332.579587 
L 450.09009 -333.007495 
L 449.260232 -333.435402 
L 448.430373 -333.863309 
L 447.600515 -334.291217 
L 446.770656 -334.719124 
L 445.940798 -335.147032 
L 445.11094 -335.574939 
L 444.281081 -336.002846 
L 443.451223 -336.430754 
L 442.621364 -336.858661 
L 441.791506 -337.286569 
L 440.961647 -337.714476 
L 440.131789 -338.142383 
L 439.301931 -338.570291 
L 438.472072 -338.998198 
L 437.642214 -339.426106 
L 436.812355 -339.854013 
L 435.982497 -340.28192 
L 435.152638 -340.709828 
L 434.32278 -341.137735 
L 433.492921 -341.565643 
L 432.663063 -341.99355 
L 431.833205 -342.421457 
L 431.003346 -342.849365 
L 430.173488 -343.277272 
L 429.343629 -343.70518 
L 428.513771 -344.133087 
L 427.683912 -344.560994 
L 426.854054 -344.988902 
L 426.024196 -345.416809 
L 425.194337 -345.844717 
L 424.364479 -346.272624 
L 423.53462 -346.700531 
L 422.704762 -347.128439 
L 421.874903 -347.556346 
L 421.045045 -347.984254 
L 420.215187 -348.412161 
L 419.385328 -348.840068 
L 418.55547 -349.267976 
L 417.725611 -349.695883 
L 416.895753 -350.123791 
L 416.065894 -350.551698 
L 415.236036 -350.979605 
L 414.406178 -351.407513 
L 413.576319 -351.83542 
L 412.746461 -352.263328 
L 411.916602 -352.691235 
L 411.086744 -353.119142 
L 410.256885 -353.54705 
L 409.427027 -353.974957 
L 408.597169 -354.402865 
L 407.76731 -354.830772 
L 406.937452 -355.258679 
L 406.107593 -355.686587 
L 405.277735 -356.114494 
L 404.447876 -356.542402 
L 403.618018 -356.970309 
L 402.78816 -357.398216 
L 401.958301 -357.826124 
L 401.128443 -358.254031 
L 400.298584 -358.681939 
L 399.468726 -359.109846 
L 398.638867 -359.537753 
L 397.809009 -359.965661 
L 396.979151 -360.393568 
L 396.149292 -360.821476 
L 395.319434 -361.249383 
L 394.489575 -361.67729 
L 393.659717 -362.105198 
L 392.829858 -362.533105 
L 392 -362.961013 
L 391.170142 -363.38892 
L 390.340283 -363.816827 
L 389.510425 -364.244735 
L 388.680566 -364.672642 
L 387.850708 -365.10055 
L 387.020849 -365.528457 
L 386.190991 -365.956364 
L 385.361133 -366.384272 
L 384.531274 -366.812179 
L 383.701416 -367.240087 
L 382.871557 -367.667994 
L 382.041699 -368.095901 
L 381.21184 -368.523809 
L 380.381982 -368.951716 
L 379.552124 -369.379624 
L 378.722265 -369.807531 
L 377.892407 -370.235438 
L 377.062548 -370.663346 
L 376.23269 -371.091253 
L 375.402831 -371.519161 
L 374.572973 -371.947068 
L 373.743115 -372.374975 
L 372.913256 -372.802883 
L 372.083398 -373.23079 
L 371.253539 -373.658698 
L 370.423681 -374.086605 
L 369.593822 -374.514512 
L 368.763964 -374.94242 
L 367.934106 -375.370327 
L 367.104247 -375.798235 
L 366.274389 -376.226142 
L 365.44453 -376.654049 
L 364.614672 -377.081957 
L 363.784813 -377.509864 
L 362.954955 -377.937772 
L 362.125097 -378.365679 
L 361.295238 -378.793586 
L 360.46538 -379.221494 
L 359.635521 -379.649401 
L 358.805663 -380.077309 
L 357.975804 -380.505216 
L 357.145946 -380.933124 
L 356.316088 -381.361031 
L 355.486229 -381.788938 
L 354.656371 -382.216846 
L 353.826512 -382.644753 
L 352.996654 -383.072661 
L 352.166795 -383.500568 
L 351.336937 -383.928475 
L 350.507079 -384.356383 
L 349.67722 -384.78429 
L 348.847362 -385.212198 
L 348.017503 -385.640105 
L 347.187645 -386.068012 
L 346.357786 -386.49592 
L 345.527928 -386.923827 
L 344.698069 -387.351735 
L 343.868211 -387.779642 
L 343.038353 -388.207549 
L 342.208494 -388.635457 
L 341.378636 -389.063364 
L 340.548777 -389.491272 
L 339.718919 -389.919179 
L 338.88906 -390.347086 
L 338.059202 -390.774994 
L 337.229344 -391.202901 
L 336.399485 -391.630809 
L 335.569627 -392.058716 
L 334.739768 -392.486623 
L 333.90991 -392.914531 
L 333.080051 -393.342438 
L 332.250193 -393.770346 
L 331.420335 -394.198253 
L 330.590476 -394.62616 
L 329.760618 -395.054068 
L 328.930759 -395.481975 
L 328.100901 -395.909883 
L 327.271042 -396.33779 
L 326.441184 -396.765697 
L 325.611326 -397.193605 
L 324.781467 -397.621512 
L 323.951609 -398.04942 
L 323.12175 -398.477327 
L 322.291892 -398.905234 
L 321.462033 -399.333142 
L 320.632175 -399.761049 
L 319.802317 -400.188957 
L 318.972458 -400.616864 
L 318.1426 -401.044771 
L 317.312741 -401.472679 
L 316.482883 -401.900586 
L 315.653024 -402.328494 
L 314.823166 -402.756401 
L 313.993308 -403.184308 
L 313.163449 -403.612216 
L 312.333591 -404.040123 
L 311.503732 -404.468031 
L 310.673874 -404.895938 
L 309.844015 -405.323845 
L 309.014157 -405.751753 
L 308.184299 -406.17966 
L 307.35444 -406.607568 
L 306.524582 -407.035475 
L 305.694723 -407.463382 
L 304.864865 -407.89129 
L 304.035006 -408.319197 
L 303.205148 -408.747105 
L 302.37529 -409.175012 
L 301.545431 -409.602919 
L 300.715573 -410.030827 
L 299.885714 -410.458734 
L 299.055856 -410.886642 
L 298.225997 -411.314549 
L 297.396139 -411.742456 
L 296.566281 -412.170364 
L 295.736422 -412.598271 
L 294.906564 -413.026179 
L 294.076705 -413.454086 
L 293.246847 -413.881993 
L 292.416988 -414.309901 
L 291.58713 -414.737808 
L 290.757272 -415.165716 
L 289.927413 -415.593623 
L 289.097555 -416.02153 
L 288.267696 -416.449438 
L 287.437838 -416.877345 
L 286.607979 -417.371974 
L 285.778121 -418.181578 
L 284.948263 -418.991182 
L 284.118404 -419.800786 
L 283.288546 -420.61039 
L 282.458687 -421.419993 
L 281.628829 -422.229597 
L 280.79897 -423.039201 
L 279.969112 -423.848805 
L 279.139254 -424.658409 
L 278.309395 -425.468013 
L 277.479537 -426.277616 
L 276.649678 -427.08722 
L 275.81982 -427.896824 
L 274.989961 -428.706428 
L 274.160103 -429.516032 
L 273.330245 -430.325636 
L 272.500386 -431.135239 
L 271.670528 -431.944843 
L 270.840669 -432.754447 
L 270.010811 -433.564051 
L 269.180952 -434.373655 
L 268.351094 -435.183258 
L 267.521236 -435.992862 
L 266.691377 -436.802466 
L 265.861519 -437.61207 
L 265.03166 -438.421674 
L 264.201802 -439.231278 
L 263.371943 -440.040881 
L 262.542085 -440.850485 
L 261.712227 -441.660089 
L 260.882368 -442.469693 
L 260.05251 -443.279297 
L 259.222651 -444.0889 
L 258.392793 -444.898504 
L 257.562934 -445.708108 
L 256.733076 -446.517712 
L 255.903218 -447.327316 
L 255.073359 -448.13692 
L 254.243501 -448.946523 
L 253.413642 -449.756127 
L 252.583784 -450.565731 
L 251.753925 -451.375335 
L 250.924067 -452.184939 
L 250.094208 -452.994542 
L 249.26435 -453.804146 
L 248.434492 -454.61375 
L 247.604633 -455.423354 
L 246.774775 -456.232958 
L 245.944916 -457.042562 
L 245.115058 -457.852165 
L 244.285199 -458.661769 
L 243.455341 -459.471373 
L 242.625483 -460.280977 
L 241.795624 -461.090581 
L 240.965766 -461.900185 
L 240.135907 -462.709788 
L 239.306049 -463.519392 
L 238.47619 -464.328996 
L 237.646332 -465.1386 
L 236.816474 -465.948204 
L 235.986615 -466.757807 
L 235.156757 -467.567411 
L 234.326898 -468.377015 
L 233.49704 -469.186619 
L 232.667181 -469.996223 
L 231.837323 -470.805827 
L 231.007465 -471.61543 
L 230.177606 -472.425034 
L 229.347748 -473.234638 
L 228.517889 -474.044242 
L 227.688031 -474.853846 
L 226.858172 -475.663449 
L 226.028314 -476.473053 
L 225.198456 -477.282657 
L 224.368597 -478.092261 
L 223.538739 -478.901865 
L 222.70888 -479.711469 
L 221.879022 -480.521072 
L 221.049163 -481.330676 
L 220.219305 -482.14028 
L 219.389447 -482.949884 
L 218.559588 -483.759488 
L 217.72973 -484.569092 
L 216.899871 -485.378695 
L 216.070013 -486.188299 
L 215.240154 -486.997903 
L 214.410296 -487.807507 
L 213.580438 -488.617111 
L 212.750579 -489.426714 
L 211.920721 -490.236318 
L 211.090862 -491.045922 
L 210.261004 -491.855526 
L 209.431145 -492.66513 
L 208.601287 -493.474734 
L 207.771429 -494.284337 
z
" style="stroke: #808080; stroke-opacity: 0.5"/>
    </defs>
    <g clip-path="url(#p8b77d0ad73)">
     <use xlink:href="#m56b348fd80" x="0" y="576" style="fill: #808080; fill-opacity: 0.5; stroke: #808080; stroke-opacity: 0.5"/>
    </g>
   </g>
   <g id="matplotlib.axis_1">
    <g id="xtick_1">
     <g id="line2d_1">
      <path d="M 144 512.64 
L 144 69.12 
" clip-path="url(#p8b77d0ad73)" style="fill: none; stroke-dasharray: 5.12,1.28,0.8,1.28; stroke-dashoffset: 0; stroke: #008000; stroke-width: 0.8"/>
     </g>
     <g id="line2d_2">
      <defs>
       <path id="m86ab161985" d="M 0 0 
L 0 3.5 
" style="stroke: #000000; stroke-width: 0.8"/>
      </defs>
      <g>
       <use xlink:href="#m86ab161985" x="144" y="512.64" style="stroke: #000000; stroke-width: 0.8"/>
      </g>
     </g>
     <g id="text_1">
      <!-- 50 -->
      <g transform="translate(133.447656 527.238438)scale(0.1 -0.1)">
       <defs>
        <path id="DejaVuSans-2212" d="M 678 2272 
L 4684 2272 
L 4684 1741 
L 678 1741 
L 678 2272 
z
" transform="scale(0.015625)"/>
        <path id="DejaVuSans-35" d="M 691 4666 
L 3169 4666 
L 3169 4134 
L 1269 4134 
L 1269 2991 
Q 1406 3038 1543 3061 
Q 1681 3084 1819 3084 
Q 2600 3084 3056 2656 
Q 3513 2228 3513 1497 
Q 3513 744 3044 326 
Q 2575 -91 1722 -91 
Q 1428 -91 1123 -41 
Q 819 9 494 109 
L 494 744 
Q 775 591 1075 516 
Q 1375 441 1709 441 
Q 2250 441 2565 725 
Q 2881 1009 2881 1497 
Q 2881 1984 2565 2268 
Q 2250 2553 1709 2553 
Q 1456 2553 1204 2497 
Q 953 2441 691 2322 
L 691 4666 
z
" transform="scale(0.015625)"/>
        <path id="DejaVuSans-30" d="M 2034 4250 
Q 1547 4250 1301 3770 
Q 1056 3291 1056 2328 
Q 1056 1369 1301 889 
Q 1547 409 2034 409 
Q 2525 409 2770 889 
Q 3016 1369 3016 2328 
Q 3016 3291 2770 3770 
Q 2525 4250 2034 4250 
z
M 2034 4750 
Q 2819 4750 3233 4129 
Q 3647 3509 3647 2328 
Q 3647 1150 3233 529 
Q 2819 -91 2034 -91 
Q 1250 -91 836 529 
Q 422 1150 422 2328 
Q 422 3509 836 4129 
Q 1250 4750 2034 4750 
z
" transform="scale(0.015625)"/>
       </defs>
       <use xlink:href="#DejaVuSans-2212"/>
       <use xlink:href="#DejaVuSans-35" x="83.789062"/>
       <use xlink:href="#DejaVuSans-30" x="147.412109"/>
      </g>
     </g>
    </g>
    <g id="xtick_2">
     <g id="line2d_3">
      <path d="M 271.542857 512.64 
L 271.542857 69.12 
" clip-path="url(#p8b77d0ad73)" style="fill: none; stroke-dasharray: 5.12,1.28,0.8,1.28; stroke-dashoffset: 0; stroke: #008000; stroke-width: 0.8"/>
     </g>
     <g id="line2d_4">
      <g>
       <use xlink:href="#m86ab161985" x="271.542857" y="512.64" style="stroke: #000000; stroke-width: 0.8"/>
      </g>
     </g>
     <g id="text_2">
      <!-- 40 -->
      <g transform="translate(260.990513 527.238438)scale(0.1 -0.1)">
       <defs>
        <path id="DejaVuSans-34" d="M 2419 4116 
L 825 1625 
L 2419 1625 
L 2419 4116 
z
M 2253 4666 
L 3047 4666 
L 3047 1625 
L 3713 1625 
L 3713 1100 
L 3047 1100 
L 3047 0 
L 2419 0 
L 2419 1100 
L 313 1100 
L 313 1709 
L 2253 4666 
z
" transform="scale(0.015625)"/>
       </defs>
       <use xlink:href="#DejaVuSans-2212"/>
       <use xlink:href="#DejaVuSans-34" x="83.789062"/>
       <use xlink:href="#DejaVuSans-30" x="147.412109"/>
      </g>
     </g>
    </g>
    <g id="xtick_3">
     <g id="line2d_5">
      <path d="M 399.085714 512.64 
L 399.085714 69.12 
" clip-path="url(#p8b77d0ad73)" style="fill: none; stroke-dasharray: 5.12,1.28,0.8,1.28; stroke-dashoffset: 0; stroke: #008000; stroke-width: 0.8"/>
     </g>
     <g id="line2d_6">
      <g>
       <use xlink:href="#m86ab161985" x="399.085714" y="512.64" style="stroke: #000000; stroke-width: 0.8"/>
      </g>
     </g>
     <g id="text_3">
      <!-- 30 -->
      <g transform="translate(388.533371 527.238438)scale(0.1 -0.1)">
       <defs>
        <path id="DejaVuSans-33" d="M 2597 2516 
Q 3050 2419 3304 2112 
Q 3559 1806 3559 1356 
Q 3559 666 3084 287 
Q 2609 -91 1734 -91 
Q 1441 -91 1130 -33 
Q 819 25 488 141 
L 488 750 
Q 750 597 1062 519 
Q 1375 441 1716 441 
Q 2309 441 2620 675 
Q 2931 909 2931 1356 
Q 2931 1769 2642 2001 
Q 2353 2234 1838 2234 
L 1294 2234 
L 1294 2753 
L 1863 2753 
Q 2328 2753 2575 2939 
Q 2822 3125 2822 3475 
Q 2822 3834 2567 4026 
Q 2313 4219 1838 4219 
Q 1578 4219 1281 4162 
Q 984 4106 628 3988 
L 628 4550 
Q 988 4650 1302 4700 
Q 1616 4750 1894 4750 
Q 2613 4750 3031 4423 
Q 3450 4097 3450 3541 
Q 3450 3153 3228 2886 
Q 3006 2619 2597 2516 
z
" transform="scale(0.015625)"/>
       </defs>
       <use xlink:href="#DejaVuSans-2212"/>
       <use xlink:href="#DejaVuSans-33" x="83.789062"/>
       <use xlink:href="#DejaVuSans-30" x="147.412109"/>
      </g>
     </g>
    </g>
    <g id="xtick_4">
     <g id="line2d_7">
      <path d="M 526.628571 512.64 
L 526.628571 69.12 
" clip-path="url(#p8b77d0ad73)" style="fill: none; stroke-dasharray: 5.12,1.28,0.8,1.28; stroke-dashoffset: 0; stroke: #008000; stroke-width: 0.8"/>
     </g>
     <g id="line2d_8">
      <g>
       <use xlink:href="#m86ab161985" x="526.628571" y="512.64" style="stroke: #000000; stroke-width: 0.8"/>
      </g>
     </g>
     <g id="text_4">
      <!-- 20 -->
      <g transform="translate(516.076228 527.238438)scale(0.1 -0.1)">
       <defs>
        <path id="DejaVuSans-32" d="M 1228 531 
L 3431 531 
L 3431 0 
L 469 0 
L 469 531 
Q 828 903 1448 1529 
Q 2069 2156 2228 2338 
Q 2531 2678 2651 2914 
Q 2772 3150 2772 3378 
Q 2772 3750 2511 3984 
Q 2250 4219 1831 4219 
Q 1534 4219 1204 4116 
Q 875 4013 500 3803 
L 500 4441 
Q 881 4594 1212 4672 
Q 1544 4750 1819 4750 
Q 2544 4750 2975 4387 
Q 3406 4025 3406 3419 
Q 3406 3131 3298 2873 
Q 3191 2616 2906 2266 
Q 2828 2175 2409 1742 
Q 1991 1309 1228 531 
z
" transform="scale(0.015625)"/>
       </defs>
       <use xlink:href="#DejaVuSans-2212"/>
       <use xlink:href="#DejaVuSans-32" x="83.789062"/>
       <use xlink:href="#DejaVuSans-30" x="147.412109"/>
      </g>
     </g>
    </g>
    <g id="xtick_5">
     <g id="line2d_9">
      <path d="M 654.171429 512.64 
L 654.171429 69.12 
" clip-path="url(#p8b77d0ad73)" style="fill: none; stroke-dasharray: 5.12,1.28,0.8,1.28; stroke-dashoffset: 0; stroke: #008000; stroke-width: 0.8"/>
     </g>
     <g id="line2d_10">
      <g>
       <use xlink:href="#m86ab161985" x="654.171429" y="512.64" style="stroke: #000000; stroke-width: 0.8"/>
      </g>
     </g>
     <g id="text_5">
      <!-- 10 -->
      <g transform="translate(643.619085 527.238438)scale(0.1 -0.1)">
       <defs>
        <path id="DejaVuSans-31" d="M 794 531 
L 1825 531 
L 1825 4091 
L 703 3866 
L 703 4441 
L 1819 4666 
L 2450 4666 
L 2450 531 
L 3481 531 
L 3481 0 
L 794 0 
L 794 531 
z
" transform="scale(0.015625)"/>
       </defs>
       <use xlink:href="#DejaVuSans-2212"/>
       <use xlink:href="#DejaVuSans-31" x="83.789062"/>
       <use xlink:href="#DejaVuSans-30" x="147.412109"/>
      </g>
     </g>
    </g>
    <g id="xtick_6">
     <g id="line2d_11">
      <path d="M 781.714286 512.64 
L 781.714286 69.12 
" clip-path="url(#p8b77d0ad73)" style="fill: none; stroke-dasharray: 5.12,1.28,0.8,1.28; stroke-dashoffset: 0; stroke: #008000; stroke-width: 0.8"/>
     </g>
     <g id="line2d_12">
      <g>
       <use xlink:href="#m86ab161985" x="781.714286" y="512.64" style="stroke: #000000; stroke-width: 0.8"/>
      </g>
     </g>
     <g id="text_6">
      <!-- 0 -->
      <g transform="translate(778.533036 527.238438)scale(0.1 -0.1)">
       <use xlink:href="#DejaVuSans-30"/>
      </g>
     </g>
    </g>
    <g id="xtick_7">
     <g id="line2d_13">
      <path d="M 909.257143 512.64 
L 909.257143 69.12 
" clip-path="url(#p8b77d0ad73)" style="fill: none; stroke-dasharray: 5.12,1.28,0.8,1.28; stroke-dashoffset: 0; stroke: #008000; stroke-width: 0.8"/>
     </g>
     <g id="line2d_14">
      <g>
       <use xlink:href="#m86ab161985" x="909.257143" y="512.64" style="stroke: #000000; stroke-width: 0.8"/>
      </g>
     </g>
     <g id="text_7">
      <!-- 10 -->
      <g transform="translate(902.894643 527.238438)scale(0.1 -0.1)">
       <use xlink:href="#DejaVuSans-31"/>
       <use xlink:href="#DejaVuSans-30" x="63.623047"/>
      </g>
     </g>
    </g>
    <g id="xtick_8">
     <g id="line2d_15">
      <path d="M 1036.8 512.64 
L 1036.8 69.12 
" clip-path="url(#p8b77d0ad73)" style="fill: none; stroke-dasharray: 5.12,1.28,0.8,1.28; stroke-dashoffset: 0; stroke: #008000; stroke-width: 0.8"/>
     </g>
     <g id="line2d_16">
      <g>
       <use xlink:href="#m86ab161985" x="1036.8" y="512.64" style="stroke: #000000; stroke-width: 0.8"/>
      </g>
     </g>
     <g id="text_8">
      <!-- 20 -->
      <g transform="translate(1030.4375 527.238438)scale(0.1 -0.1)">
       <use xlink:href="#DejaVuSans-32"/>
       <use xlink:href="#DejaVuSans-30" x="63.623047"/>
      </g>
     </g>
    </g>
    <g id="text_9">
     <!-- $x_1$ -->
     <g transform="translate(585.05 540.916563)scale(0.1 -0.1)">
      <defs>
       <path id="DejaVuSans-Oblique-78" d="M 3841 3500 
L 2234 1784 
L 3219 0 
L 2559 0 
L 1819 1388 
L 531 0 
L -166 0 
L 1556 1844 
L 641 3500 
L 1300 3500 
L 1972 2234 
L 3144 3500 
L 3841 3500 
z
" transform="scale(0.015625)"/>
      </defs>
      <use xlink:href="#DejaVuSans-Oblique-78" transform="translate(0 0.3125)"/>
      <use xlink:href="#DejaVuSans-31" transform="translate(59.179688 -16.09375)scale(0.7)"/>
     </g>
    </g>
   </g>
   <g id="matplotlib.axis_2">
    <g id="ytick_1">
     <g id="line2d_17">
      <path d="M 144 512.64 
L 1036.8 512.64 
" clip-path="url(#p8b77d0ad73)" style="fill: none; stroke-dasharray: 5.12,1.28,0.8,1.28; stroke-dashoffset: 0; stroke: #008000; stroke-width: 0.8"/>
     </g>
     <g id="line2d_18">
      <defs>
       <path id="m1a81d13be4" d="M 0 0 
L -3.5 0 
" style="stroke: #000000; stroke-width: 0.8"/>
      </defs>
      <g>
       <use xlink:href="#m1a81d13be4" x="144" y="512.64" style="stroke: #000000; stroke-width: 0.8"/>
      </g>
     </g>
     <g id="text_10">
      <!-- 0 -->
      <g transform="translate(130.6375 516.439219)scale(0.1 -0.1)">
       <use xlink:href="#DejaVuSans-30"/>
      </g>
     </g>
    </g>
    <g id="ytick_2">
     <g id="line2d_19">
      <path d="M 144 449.28 
L 1036.8 449.28 
" clip-path="url(#p8b77d0ad73)" style="fill: none; stroke-dasharray: 5.12,1.28,0.8,1.28; stroke-dashoffset: 0; stroke: #008000; stroke-width: 0.8"/>
     </g>
     <g id="line2d_20">
      <g>
       <use xlink:href="#m1a81d13be4" x="144" y="449.28" style="stroke: #000000; stroke-width: 0.8"/>
      </g>
     </g>
     <g id="text_11">
      <!-- 10 -->
      <g transform="translate(124.275 453.079219)scale(0.1 -0.1)">
       <use xlink:href="#DejaVuSans-31"/>
       <use xlink:href="#DejaVuSans-30" x="63.623047"/>
      </g>
     </g>
    </g>
    <g id="ytick_3">
     <g id="line2d_21">
      <path d="M 144 385.92 
L 1036.8 385.92 
" clip-path="url(#p8b77d0ad73)" style="fill: none; stroke-dasharray: 5.12,1.28,0.8,1.28; stroke-dashoffset: 0; stroke: #008000; stroke-width: 0.8"/>
     </g>
     <g id="line2d_22">
      <g>
       <use xlink:href="#m1a81d13be4" x="144" y="385.92" style="stroke: #000000; stroke-width: 0.8"/>
      </g>
     </g>
     <g id="text_12">
      <!-- 20 -->
      <g transform="translate(124.275 389.719219)scale(0.1 -0.1)">
       <use xlink:href="#DejaVuSans-32"/>
       <use xlink:href="#DejaVuSans-30" x="63.623047"/>
      </g>
     </g>
    </g>
    <g id="ytick_4">
     <g id="line2d_23">
      <path d="M 144 322.56 
L 1036.8 322.56 
" clip-path="url(#p8b77d0ad73)" style="fill: none; stroke-dasharray: 5.12,1.28,0.8,1.28; stroke-dashoffset: 0; stroke: #008000; stroke-width: 0.8"/>
     </g>
     <g id="line2d_24">
      <g>
       <use xlink:href="#m1a81d13be4" x="144" y="322.56" style="stroke: #000000; stroke-width: 0.8"/>
      </g>
     </g>
     <g id="text_13">
      <!-- 30 -->
      <g transform="translate(124.275 326.359219)scale(0.1 -0.1)">
       <use xlink:href="#DejaVuSans-33"/>
       <use xlink:href="#DejaVuSans-30" x="63.623047"/>
      </g>
     </g>
    </g>
    <g id="ytick_5">
     <g id="line2d_25">
      <path d="M 144 259.2 
L 1036.8 259.2 
" clip-path="url(#p8b77d0ad73)" style="fill: none; stroke-dasharray: 5.12,1.28,0.8,1.28; stroke-dashoffset: 0; stroke: #008000; stroke-width: 0.8"/>
     </g>
     <g id="line2d_26">
      <g>
       <use xlink:href="#m1a81d13be4" x="144" y="259.2" style="stroke: #000000; stroke-width: 0.8"/>
      </g>
     </g>
     <g id="text_14">
      <!-- 40 -->
      <g transform="translate(124.275 262.999219)scale(0.1 -0.1)">
       <use xlink:href="#DejaVuSans-34"/>
       <use xlink:href="#DejaVuSans-30" x="63.623047"/>
      </g>
     </g>
    </g>
    <g id="ytick_6">
     <g id="line2d_27">
      <path d="M 144 195.84 
L 1036.8 195.84 
" clip-path="url(#p8b77d0ad73)" style="fill: none; stroke-dasharray: 5.12,1.28,0.8,1.28; stroke-dashoffset: 0; stroke: #008000; stroke-width: 0.8"/>
     </g>
     <g id="line2d_28">
      <g>
       <use xlink:href="#m1a81d13be4" x="144" y="195.84" style="stroke: #000000; stroke-width: 0.8"/>
      </g>
     </g>
     <g id="text_15">
      <!-- 50 -->
      <g transform="translate(124.275 199.639219)scale(0.1 -0.1)">
       <use xlink:href="#DejaVuSans-35"/>
       <use xlink:href="#DejaVuSans-30" x="63.623047"/>
      </g>
     </g>
    </g>
    <g id="ytick_7">
     <g id="line2d_29">
      <path d="M 144 132.48 
L 1036.8 132.48 
" clip-path="url(#p8b77d0ad73)" style="fill: none; stroke-dasharray: 5.12,1.28,0.8,1.28; stroke-dashoffset: 0; stroke: #008000; stroke-width: 0.8"/>
     </g>
     <g id="line2d_30">
      <g>
       <use xlink:href="#m1a81d13be4" x="144" y="132.48" style="stroke: #000000; stroke-width: 0.8"/>
      </g>
     </g>
     <g id="text_16">
      <!-- 60 -->
      <g transform="translate(124.275 136.279219)scale(0.1 -0.1)">
       <defs>
        <path id="DejaVuSans-36" d="M 2113 2584 
Q 1688 2584 1439 2293 
Q 1191 2003 1191 1497 
Q 1191 994 1439 701 
Q 1688 409 2113 409 
Q 2538 409 2786 701 
Q 3034 994 3034 1497 
Q 3034 2003 2786 2293 
Q 2538 2584 2113 2584 
z
M 3366 4563 
L 3366 3988 
Q 3128 4100 2886 4159 
Q 2644 4219 2406 4219 
Q 1781 4219 1451 3797 
Q 1122 3375 1075 2522 
Q 1259 2794 1537 2939 
Q 1816 3084 2150 3084 
Q 2853 3084 3261 2657 
Q 3669 2231 3669 1497 
Q 3669 778 3244 343 
Q 2819 -91 2113 -91 
Q 1303 -91 875 529 
Q 447 1150 447 2328 
Q 447 3434 972 4092 
Q 1497 4750 2381 4750 
Q 2619 4750 2861 4703 
Q 3103 4656 3366 4563 
z
" transform="scale(0.015625)"/>
       </defs>
       <use xlink:href="#DejaVuSans-36"/>
       <use xlink:href="#DejaVuSans-30" x="63.623047"/>
      </g>
     </g>
    </g>
    <g id="ytick_8">
     <g id="line2d_31">
      <path d="M 144 69.12 
L 1036.8 69.12 
" clip-path="url(#p8b77d0ad73)" style="fill: none; stroke-dasharray: 5.12,1.28,0.8,1.28; stroke-dashoffset: 0; stroke: #008000; stroke-width: 0.8"/>
     </g>
     <g id="line2d_32">
      <g>
       <use xlink:href="#m1a81d13be4" x="144" y="69.12" style="stroke: #000000; stroke-width: 0.8"/>
      </g>
     </g>
     <g id="text_17">
      <!-- 70 -->
      <g transform="translate(124.275 72.919219)scale(0.1 -0.1)">
       <defs>
        <path id="DejaVuSans-37" d="M 525 4666 
L 3525 4666 
L 3525 4397 
L 1831 0 
L 1172 0 
L 2766 4134 
L 525 4134 
L 525 4666 
z
" transform="scale(0.015625)"/>
       </defs>
       <use xlink:href="#DejaVuSans-37"/>
       <use xlink:href="#DejaVuSans-30" x="63.623047"/>
      </g>
     </g>
    </g>
    <g id="text_18">
     <!-- $x_2$ -->
     <g transform="translate(118.195312 296.23)rotate(-90)scale(0.1 -0.1)">
      <use xlink:href="#DejaVuSans-Oblique-78" transform="translate(0 0.3125)"/>
      <use xlink:href="#DejaVuSans-32" transform="translate(59.179688 -16.09375)scale(0.7)"/>
     </g>
    </g>
   </g>
   <g id="line2d_33">
    <path d="M 207.771429 118.043544 
L 1036.8 545.523038 
L 1036.8 545.523038 
" clip-path="url(#p8b77d0ad73)" style="fill: none; stroke-dasharray: 9.6,2.4,1.5,2.4; stroke-dashoffset: 0; stroke: #00bfbf; stroke-width: 1.5"/>
   </g>
   <g id="line2d_34">
    <path d="M 207.771429 238.598282 
L 1036.8 521.580368 
L 1036.8 521.580368 
" clip-path="url(#p8b77d0ad73)" style="fill: none; stroke-dasharray: 5.55,2.4; stroke-dashoffset: 0; stroke: #bfbf00; stroke-width: 1.5"/>
   </g>
   <g id="line2d_35">
    <path d="M 207.771429 81.715663 
L 715.446753 577 
L 715.446753 577 
" clip-path="url(#p8b77d0ad73)" style="fill: none; stroke-dasharray: 1.5,2.475; stroke-dashoffset: 0; stroke: #bf00bf; stroke-width: 1.5"/>
   </g>
   <g id="line2d_36">
    <path d="M 899.433125 474.691315 
" clip-path="url(#p8b77d0ad73)" style="fill: none; stroke: #ff0000; stroke-width: 1.5; stroke-linecap: square"/>
    <defs>
     <path id="md957b47f26" d="M 0 3 
C 0.795609 3 1.55874 2.683901 2.12132 2.12132 
C 2.683901 1.55874 3 0.795609 3 0 
C 3 -0.795609 2.683901 -1.55874 2.12132 -2.12132 
C 1.55874 -2.683901 0.795609 -3 0 -3 
C -0.795609 -3 -1.55874 -2.683901 -2.12132 -2.12132 
C -2.683901 -1.55874 -3 -0.795609 -3 0 
C -3 0.795609 -2.683901 1.55874 -2.12132 2.12132 
C -1.55874 2.683901 -0.795609 3 0 3 
z
" style="stroke: #ff0000"/>
    </defs>
    <g clip-path="url(#p8b77d0ad73)">
     <use xlink:href="#md957b47f26" x="899.433125" y="474.691315" style="fill: #ff0000; stroke: #ff0000"/>
    </g>
   </g>
   <g id="line2d_37">
    <path d="M 455.122462 323.029524 
" clip-path="url(#p8b77d0ad73)" style="fill: none; stroke: #008000; stroke-width: 1.5; stroke-linecap: square"/>
    <defs>
     <path id="m32c8f1b4de" d="M 0 3 
C 0.795609 3 1.55874 2.683901 2.12132 2.12132 
C 2.683901 1.55874 3 0.795609 3 0 
C 3 -0.795609 2.683901 -1.55874 2.12132 -2.12132 
C 1.55874 -2.683901 0.795609 -3 0 -3 
C -0.795609 -3 -1.55874 -2.683901 -2.12132 -2.12132 
C -2.683901 -1.55874 -3 -0.795609 -3 0 
C -3 0.795609 -2.683901 1.55874 -2.12132 2.12132 
C -1.55874 2.683901 -0.795609 3 0 3 
z
" style="stroke: #008000"/>
    </defs>
    <g clip-path="url(#p8b77d0ad73)">
     <use xlink:href="#m32c8f1b4de" x="455.122462" y="323.029524" style="fill: #008000; stroke: #008000"/>
    </g>
   </g>
   <g id="line2d_38">
    <path d="M 286.753041 158.769547 
" clip-path="url(#p8b77d0ad73)" style="fill: none; stroke: #0000ff; stroke-width: 1.5; stroke-linecap: square"/>
    <defs>
     <path id="mbd05b69ed5" d="M 0 3 
C 0.795609 3 1.55874 2.683901 2.12132 2.12132 
C 2.683901 1.55874 3 0.795609 3 0 
C 3 -0.795609 2.683901 -1.55874 2.12132 -2.12132 
C 1.55874 -2.683901 0.795609 -3 0 -3 
C -0.795609 -3 -1.55874 -2.683901 -2.12132 -2.12132 
C -2.683901 -1.55874 -3 -0.795609 -3 0 
C -3 0.795609 -2.683901 1.55874 -2.12132 2.12132 
C -1.55874 2.683901 -0.795609 3 0 3 
z
" style="stroke: #0000ff"/>
    </defs>
    <g clip-path="url(#p8b77d0ad73)">
     <use xlink:href="#mbd05b69ed5" x="286.753041" y="158.769547" style="fill: #0000ff; stroke: #0000ff"/>
    </g>
   </g>
   <g id="patch_3">
    <path d="M 144 512.64 
L 144 69.12 
" style="fill: none; stroke: #000000; stroke-width: 0.8; stroke-linejoin: miter; stroke-linecap: square"/>
   </g>
   <g id="patch_4">
    <path d="M 1036.8 512.64 
L 1036.8 69.12 
" style="fill: none; stroke: #000000; stroke-width: 0.8; stroke-linejoin: miter; stroke-linecap: square"/>
   </g>
   <g id="patch_5">
    <path d="M 144 512.64 
L 1036.8 512.64 
" style="fill: none; stroke: #000000; stroke-width: 0.8; stroke-linejoin: miter; stroke-linecap: square"/>
   </g>
   <g id="patch_6">
    <path d="M 144 69.12 
L 1036.8 69.12 
" style="fill: none; stroke: #000000; stroke-width: 0.8; stroke-linejoin: miter; stroke-linecap: square"/>
   </g>
   <g id="text_19">
    <!-- $8.2x_1 + 7.9x_2 = 123$ -->
    <g transform="translate(590.4 306.72)rotate(27.277399)scale(0.1 -0.1)">
     <defs>
      <path id="DejaVuSans-38" d="M 2034 2216 
Q 1584 2216 1326 1975 
Q 1069 1734 1069 1313 
Q 1069 891 1326 650 
Q 1584 409 2034 409 
Q 2484 409 2743 651 
Q 3003 894 3003 1313 
Q 3003 1734 2745 1975 
Q 2488 2216 2034 2216 
z
M 1403 2484 
Q 997 2584 770 2862 
Q 544 3141 544 3541 
Q 544 4100 942 4425 
Q 1341 4750 2034 4750 
Q 2731 4750 3128 4425 
Q 3525 4100 3525 3541 
Q 3525 3141 3298 2862 
Q 3072 2584 2669 2484 
Q 3125 2378 3379 2068 
Q 3634 1759 3634 1313 
Q 3634 634 3220 271 
Q 2806 -91 2034 -91 
Q 1263 -91 848 271 
Q 434 634 434 1313 
Q 434 1759 690 2068 
Q 947 2378 1403 2484 
z
M 1172 3481 
Q 1172 3119 1398 2916 
Q 1625 2713 2034 2713 
Q 2441 2713 2670 2916 
Q 2900 3119 2900 3481 
Q 2900 3844 2670 4047 
Q 2441 4250 2034 4250 
Q 1625 4250 1398 4047 
Q 1172 3844 1172 3481 
z
" transform="scale(0.015625)"/>
      <path id="DejaVuSans-2e" d="M 684 794 
L 1344 794 
L 1344 0 
L 684 0 
L 684 794 
z
" transform="scale(0.015625)"/>
      <path id="DejaVuSans-2b" d="M 2944 4013 
L 2944 2272 
L 4684 2272 
L 4684 1741 
L 2944 1741 
L 2944 0 
L 2419 0 
L 2419 1741 
L 678 1741 
L 678 2272 
L 2419 2272 
L 2419 4013 
L 2944 4013 
z
" transform="scale(0.015625)"/>
      <path id="DejaVuSans-39" d="M 703 97 
L 703 672 
Q 941 559 1184 500 
Q 1428 441 1663 441 
Q 2288 441 2617 861 
Q 2947 1281 2994 2138 
Q 2813 1869 2534 1725 
Q 2256 1581 1919 1581 
Q 1219 1581 811 2004 
Q 403 2428 403 3163 
Q 403 3881 828 4315 
Q 1253 4750 1959 4750 
Q 2769 4750 3195 4129 
Q 3622 3509 3622 2328 
Q 3622 1225 3098 567 
Q 2575 -91 1691 -91 
Q 1453 -91 1209 -44 
Q 966 3 703 97 
z
M 1959 2075 
Q 2384 2075 2632 2365 
Q 2881 2656 2881 3163 
Q 2881 3666 2632 3958 
Q 2384 4250 1959 4250 
Q 1534 4250 1286 3958 
Q 1038 3666 1038 3163 
Q 1038 2656 1286 2365 
Q 1534 2075 1959 2075 
z
" transform="scale(0.015625)"/>
      <path id="DejaVuSans-3d" d="M 678 2906 
L 4684 2906 
L 4684 2381 
L 678 2381 
L 678 2906 
z
M 678 1631 
L 4684 1631 
L 4684 1100 
L 678 1100 
L 678 1631 
z
" transform="scale(0.015625)"/>
     </defs>
     <use xlink:href="#DejaVuSans-38" transform="translate(0 0.78125)"/>
     <use xlink:href="#DejaVuSans-2e" transform="translate(63.623047 0.78125)"/>
     <use xlink:href="#DejaVuSans-32" transform="translate(89.910156 0.78125)"/>
     <use xlink:href="#DejaVuSans-Oblique-78" transform="translate(153.533203 0.78125)"/>
     <use xlink:href="#DejaVuSans-31" transform="translate(212.712891 -15.625)scale(0.7)"/>
     <use xlink:href="#DejaVuSans-2b" transform="translate(279.46582 0.78125)"/>
     <use xlink:href="#DejaVuSans-37" transform="translate(382.737305 0.78125)"/>
     <use xlink:href="#DejaVuSans-2e" transform="translate(446.360352 0.78125)"/>
     <use xlink:href="#DejaVuSans-39" transform="translate(478.147461 0.78125)"/>
     <use xlink:href="#DejaVuSans-Oblique-78" transform="translate(541.770508 0.78125)"/>
     <use xlink:href="#DejaVuSans-32" transform="translate(600.950195 -15.625)scale(0.7)"/>
     <use xlink:href="#DejaVuSans-3d" transform="translate(667.703125 0.78125)"/>
     <use xlink:href="#DejaVuSans-31" transform="translate(770.974609 0.78125)"/>
     <use xlink:href="#DejaVuSans-32" transform="translate(834.597656 0.78125)"/>
     <use xlink:href="#DejaVuSans-33" transform="translate(898.220703 0.78125)"/>
    </g>
   </g>
   <g id="text_20">
    <!-- $11.2x_1 + 16.3x_2 = 201$ -->
    <g transform="translate(246.034286 246.528)rotate(18.846917)scale(0.1 -0.1)">
     <use xlink:href="#DejaVuSans-31" transform="translate(0 0.78125)"/>
     <use xlink:href="#DejaVuSans-31" transform="translate(63.623047 0.78125)"/>
     <use xlink:href="#DejaVuSans-2e" transform="translate(127.246094 0.78125)"/>
     <use xlink:href="#DejaVuSans-32" transform="translate(153.533203 0.78125)"/>
     <use xlink:href="#DejaVuSans-Oblique-78" transform="translate(217.15625 0.78125)"/>
     <use xlink:href="#DejaVuSans-31" transform="translate(276.335938 -15.625)scale(0.7)"/>
     <use xlink:href="#DejaVuSans-2b" transform="translate(343.088867 0.78125)"/>
     <use xlink:href="#DejaVuSans-31" transform="translate(446.360352 0.78125)"/>
     <use xlink:href="#DejaVuSans-36" transform="translate(509.983398 0.78125)"/>
     <use xlink:href="#DejaVuSans-2e" transform="translate(573.606445 0.78125)"/>
     <use xlink:href="#DejaVuSans-33" transform="translate(605.393555 0.78125)"/>
     <use xlink:href="#DejaVuSans-Oblique-78" transform="translate(669.016602 0.78125)"/>
     <use xlink:href="#DejaVuSans-32" transform="translate(728.196289 -15.625)scale(0.7)"/>
     <use xlink:href="#DejaVuSans-3d" transform="translate(794.949219 0.78125)"/>
     <use xlink:href="#DejaVuSans-32" transform="translate(898.220703 0.78125)"/>
     <use xlink:href="#DejaVuSans-30" transform="translate(961.84375 0.78125)"/>
     <use xlink:href="#DejaVuSans-31" transform="translate(1025.466797 0.78125)"/>
    </g>
   </g>
   <g id="text_21">
    <!-- $-16.3x_1 - 8.3x_2 = 169$ -->
    <g transform="translate(552.137143 404.928)rotate(44.29218)scale(0.1 -0.1)">
     <use xlink:href="#DejaVuSans-2212" transform="translate(0 0.78125)"/>
     <use xlink:href="#DejaVuSans-31" transform="translate(83.789062 0.78125)"/>
     <use xlink:href="#DejaVuSans-36" transform="translate(147.412109 0.78125)"/>
     <use xlink:href="#DejaVuSans-2e" transform="translate(211.035156 0.78125)"/>
     <use xlink:href="#DejaVuSans-33" transform="translate(242.822266 0.78125)"/>
     <use xlink:href="#DejaVuSans-Oblique-78" transform="translate(306.445312 0.78125)"/>
     <use xlink:href="#DejaVuSans-31" transform="translate(365.625 -15.625)scale(0.7)"/>
     <use xlink:href="#DejaVuSans-2212" transform="translate(432.37793 0.78125)"/>
     <use xlink:href="#DejaVuSans-38" transform="translate(535.649414 0.78125)"/>
     <use xlink:href="#DejaVuSans-2e" transform="translate(599.272461 0.78125)"/>
     <use xlink:href="#DejaVuSans-33" transform="translate(631.05957 0.78125)"/>
     <use xlink:href="#DejaVuSans-Oblique-78" transform="translate(694.682617 0.78125)"/>
     <use xlink:href="#DejaVuSans-32" transform="translate(753.862305 -15.625)scale(0.7)"/>
     <use xlink:href="#DejaVuSans-3d" transform="translate(820.615234 0.78125)"/>
     <use xlink:href="#DejaVuSans-31" transform="translate(923.886719 0.78125)"/>
     <use xlink:href="#DejaVuSans-36" transform="translate(987.509766 0.78125)"/>
     <use xlink:href="#DejaVuSans-39" transform="translate(1051.132812 0.78125)"/>
    </g>
   </g>
   <g id="patch_7">
    <path d="M 907.797839 391.989782 
Q 903.716186 432.344889 899.747041 471.587638 
" style="fill: none; stroke: #000000; stroke-linecap: round"/>
    <path d="M 902.139409 467.809202 
L 899.747041 471.587638 
L 898.159713 467.406682 
" style="fill: none; stroke: #000000; stroke-linecap: round"/>
   </g>
   <g id="text_22">
    <!-- The intersection point of -->
    <g transform="translate(847.96183 374.722188)scale(0.1 -0.1)">
     <defs>
      <path id="DejaVuSans-54" d="M -19 4666 
L 3928 4666 
L 3928 4134 
L 2272 4134 
L 2272 0 
L 1638 0 
L 1638 4134 
L -19 4134 
L -19 4666 
z
" transform="scale(0.015625)"/>
      <path id="DejaVuSans-68" d="M 3513 2113 
L 3513 0 
L 2938 0 
L 2938 2094 
Q 2938 2591 2744 2837 
Q 2550 3084 2163 3084 
Q 1697 3084 1428 2787 
Q 1159 2491 1159 1978 
L 1159 0 
L 581 0 
L 581 4863 
L 1159 4863 
L 1159 2956 
Q 1366 3272 1645 3428 
Q 1925 3584 2291 3584 
Q 2894 3584 3203 3211 
Q 3513 2838 3513 2113 
z
" transform="scale(0.015625)"/>
      <path id="DejaVuSans-65" d="M 3597 1894 
L 3597 1613 
L 953 1613 
Q 991 1019 1311 708 
Q 1631 397 2203 397 
Q 2534 397 2845 478 
Q 3156 559 3463 722 
L 3463 178 
Q 3153 47 2828 -22 
Q 2503 -91 2169 -91 
Q 1331 -91 842 396 
Q 353 884 353 1716 
Q 353 2575 817 3079 
Q 1281 3584 2069 3584 
Q 2775 3584 3186 3129 
Q 3597 2675 3597 1894 
z
M 3022 2063 
Q 3016 2534 2758 2815 
Q 2500 3097 2075 3097 
Q 1594 3097 1305 2825 
Q 1016 2553 972 2059 
L 3022 2063 
z
" transform="scale(0.015625)"/>
      <path id="DejaVuSans-20" transform="scale(0.015625)"/>
      <path id="DejaVuSans-69" d="M 603 3500 
L 1178 3500 
L 1178 0 
L 603 0 
L 603 3500 
z
M 603 4863 
L 1178 4863 
L 1178 4134 
L 603 4134 
L 603 4863 
z
" transform="scale(0.015625)"/>
      <path id="DejaVuSans-6e" d="M 3513 2113 
L 3513 0 
L 2938 0 
L 2938 2094 
Q 2938 2591 2744 2837 
Q 2550 3084 2163 3084 
Q 1697 3084 1428 2787 
Q 1159 2491 1159 1978 
L 1159 0 
L 581 0 
L 581 3500 
L 1159 3500 
L 1159 2956 
Q 1366 3272 1645 3428 
Q 1925 3584 2291 3584 
Q 2894 3584 3203 3211 
Q 3513 2838 3513 2113 
z
" transform="scale(0.015625)"/>
      <path id="DejaVuSans-74" d="M 1172 4494 
L 1172 3500 
L 2356 3500 
L 2356 3053 
L 1172 3053 
L 1172 1153 
Q 1172 725 1289 603 
Q 1406 481 1766 481 
L 2356 481 
L 2356 0 
L 1766 0 
Q 1100 0 847 248 
Q 594 497 594 1153 
L 594 3053 
L 172 3053 
L 172 3500 
L 594 3500 
L 594 4494 
L 1172 4494 
z
" transform="scale(0.015625)"/>
      <path id="DejaVuSans-72" d="M 2631 2963 
Q 2534 3019 2420 3045 
Q 2306 3072 2169 3072 
Q 1681 3072 1420 2755 
Q 1159 2438 1159 1844 
L 1159 0 
L 581 0 
L 581 3500 
L 1159 3500 
L 1159 2956 
Q 1341 3275 1631 3429 
Q 1922 3584 2338 3584 
Q 2397 3584 2469 3576 
Q 2541 3569 2628 3553 
L 2631 2963 
z
" transform="scale(0.015625)"/>
      <path id="DejaVuSans-73" d="M 2834 3397 
L 2834 2853 
Q 2591 2978 2328 3040 
Q 2066 3103 1784 3103 
Q 1356 3103 1142 2972 
Q 928 2841 928 2578 
Q 928 2378 1081 2264 
Q 1234 2150 1697 2047 
L 1894 2003 
Q 2506 1872 2764 1633 
Q 3022 1394 3022 966 
Q 3022 478 2636 193 
Q 2250 -91 1575 -91 
Q 1294 -91 989 -36 
Q 684 19 347 128 
L 347 722 
Q 666 556 975 473 
Q 1284 391 1588 391 
Q 1994 391 2212 530 
Q 2431 669 2431 922 
Q 2431 1156 2273 1281 
Q 2116 1406 1581 1522 
L 1381 1569 
Q 847 1681 609 1914 
Q 372 2147 372 2553 
Q 372 3047 722 3315 
Q 1072 3584 1716 3584 
Q 2034 3584 2315 3537 
Q 2597 3491 2834 3397 
z
" transform="scale(0.015625)"/>
      <path id="DejaVuSans-63" d="M 3122 3366 
L 3122 2828 
Q 2878 2963 2633 3030 
Q 2388 3097 2138 3097 
Q 1578 3097 1268 2742 
Q 959 2388 959 1747 
Q 959 1106 1268 751 
Q 1578 397 2138 397 
Q 2388 397 2633 464 
Q 2878 531 3122 666 
L 3122 134 
Q 2881 22 2623 -34 
Q 2366 -91 2075 -91 
Q 1284 -91 818 406 
Q 353 903 353 1747 
Q 353 2603 823 3093 
Q 1294 3584 2113 3584 
Q 2378 3584 2631 3529 
Q 2884 3475 3122 3366 
z
" transform="scale(0.015625)"/>
      <path id="DejaVuSans-6f" d="M 1959 3097 
Q 1497 3097 1228 2736 
Q 959 2375 959 1747 
Q 959 1119 1226 758 
Q 1494 397 1959 397 
Q 2419 397 2687 759 
Q 2956 1122 2956 1747 
Q 2956 2369 2687 2733 
Q 2419 3097 1959 3097 
z
M 1959 3584 
Q 2709 3584 3137 3096 
Q 3566 2609 3566 1747 
Q 3566 888 3137 398 
Q 2709 -91 1959 -91 
Q 1206 -91 779 398 
Q 353 888 353 1747 
Q 353 2609 779 3096 
Q 1206 3584 1959 3584 
z
" transform="scale(0.015625)"/>
      <path id="DejaVuSans-70" d="M 1159 525 
L 1159 -1331 
L 581 -1331 
L 581 3500 
L 1159 3500 
L 1159 2969 
Q 1341 3281 1617 3432 
Q 1894 3584 2278 3584 
Q 2916 3584 3314 3078 
Q 3713 2572 3713 1747 
Q 3713 922 3314 415 
Q 2916 -91 2278 -91 
Q 1894 -91 1617 61 
Q 1341 213 1159 525 
z
M 3116 1747 
Q 3116 2381 2855 2742 
Q 2594 3103 2138 3103 
Q 1681 3103 1420 2742 
Q 1159 2381 1159 1747 
Q 1159 1113 1420 752 
Q 1681 391 2138 391 
Q 2594 391 2855 752 
Q 3116 1113 3116 1747 
z
" transform="scale(0.015625)"/>
      <path id="DejaVuSans-66" d="M 2375 4863 
L 2375 4384 
L 1825 4384 
Q 1516 4384 1395 4259 
Q 1275 4134 1275 3809 
L 1275 3500 
L 2222 3500 
L 2222 3053 
L 1275 3053 
L 1275 0 
L 697 0 
L 697 3053 
L 147 3053 
L 147 3500 
L 697 3500 
L 697 3744 
Q 697 4328 969 4595 
Q 1241 4863 1831 4863 
L 2375 4863 
z
" transform="scale(0.015625)"/>
     </defs>
     <use xlink:href="#DejaVuSans-54"/>
     <use xlink:href="#DejaVuSans-68" x="61.083984"/>
     <use xlink:href="#DejaVuSans-65" x="124.462891"/>
     <use xlink:href="#DejaVuSans-20" x="185.986328"/>
     <use xlink:href="#DejaVuSans-69" x="217.773438"/>
     <use xlink:href="#DejaVuSans-6e" x="245.556641"/>
     <use xlink:href="#DejaVuSans-74" x="308.935547"/>
     <use xlink:href="#DejaVuSans-65" x="348.144531"/>
     <use xlink:href="#DejaVuSans-72" x="409.667969"/>
     <use xlink:href="#DejaVuSans-73" x="450.78125"/>
     <use xlink:href="#DejaVuSans-65" x="502.880859"/>
     <use xlink:href="#DejaVuSans-63" x="564.404297"/>
     <use xlink:href="#DejaVuSans-74" x="619.384766"/>
     <use xlink:href="#DejaVuSans-69" x="658.59375"/>
     <use xlink:href="#DejaVuSans-6f" x="686.376953"/>
     <use xlink:href="#DejaVuSans-6e" x="747.558594"/>
     <use xlink:href="#DejaVuSans-20" x="810.9375"/>
     <use xlink:href="#DejaVuSans-70" x="842.724609"/>
     <use xlink:href="#DejaVuSans-6f" x="906.201172"/>
     <use xlink:href="#DejaVuSans-69" x="967.382812"/>
     <use xlink:href="#DejaVuSans-6e" x="995.166016"/>
     <use xlink:href="#DejaVuSans-74" x="1058.544922"/>
     <use xlink:href="#DejaVuSans-20" x="1097.753906"/>
     <use xlink:href="#DejaVuSans-6f" x="1129.541016"/>
     <use xlink:href="#DejaVuSans-66" x="1190.722656"/>
    </g>
    <!--  f[0] and f[1] -->
    <g transform="translate(877.396987 385.92)scale(0.1 -0.1)">
     <defs>
      <path id="DejaVuSans-5b" d="M 550 4863 
L 1875 4863 
L 1875 4416 
L 1125 4416 
L 1125 -397 
L 1875 -397 
L 1875 -844 
L 550 -844 
L 550 4863 
z
" transform="scale(0.015625)"/>
      <path id="DejaVuSans-5d" d="M 1947 4863 
L 1947 -844 
L 622 -844 
L 622 -397 
L 1369 -397 
L 1369 4416 
L 622 4416 
L 622 4863 
L 1947 4863 
z
" transform="scale(0.015625)"/>
      <path id="DejaVuSans-61" d="M 2194 1759 
Q 1497 1759 1228 1600 
Q 959 1441 959 1056 
Q 959 750 1161 570 
Q 1363 391 1709 391 
Q 2188 391 2477 730 
Q 2766 1069 2766 1631 
L 2766 1759 
L 2194 1759 
z
M 3341 1997 
L 3341 0 
L 2766 0 
L 2766 531 
Q 2569 213 2275 61 
Q 1981 -91 1556 -91 
Q 1019 -91 701 211 
Q 384 513 384 1019 
Q 384 1609 779 1909 
Q 1175 2209 1959 2209 
L 2766 2209 
L 2766 2266 
Q 2766 2663 2505 2880 
Q 2244 3097 1772 3097 
Q 1472 3097 1187 3025 
Q 903 2953 641 2809 
L 641 3341 
Q 956 3463 1253 3523 
Q 1550 3584 1831 3584 
Q 2591 3584 2966 3190 
Q 3341 2797 3341 1997 
z
" transform="scale(0.015625)"/>
      <path id="DejaVuSans-64" d="M 2906 2969 
L 2906 4863 
L 3481 4863 
L 3481 0 
L 2906 0 
L 2906 525 
Q 2725 213 2448 61 
Q 2172 -91 1784 -91 
Q 1150 -91 751 415 
Q 353 922 353 1747 
Q 353 2572 751 3078 
Q 1150 3584 1784 3584 
Q 2172 3584 2448 3432 
Q 2725 3281 2906 2969 
z
M 947 1747 
Q 947 1113 1208 752 
Q 1469 391 1925 391 
Q 2381 391 2643 752 
Q 2906 1113 2906 1747 
Q 2906 2381 2643 2742 
Q 2381 3103 1925 3103 
Q 1469 3103 1208 2742 
Q 947 2381 947 1747 
z
" transform="scale(0.015625)"/>
     </defs>
     <use xlink:href="#DejaVuSans-20"/>
     <use xlink:href="#DejaVuSans-66" x="31.787109"/>
     <use xlink:href="#DejaVuSans-5b" x="66.992188"/>
     <use xlink:href="#DejaVuSans-30" x="106.005859"/>
     <use xlink:href="#DejaVuSans-5d" x="169.628906"/>
     <use xlink:href="#DejaVuSans-20" x="208.642578"/>
     <use xlink:href="#DejaVuSans-61" x="240.429688"/>
     <use xlink:href="#DejaVuSans-6e" x="301.708984"/>
     <use xlink:href="#DejaVuSans-64" x="365.087891"/>
     <use xlink:href="#DejaVuSans-20" x="428.564453"/>
     <use xlink:href="#DejaVuSans-66" x="460.351562"/>
     <use xlink:href="#DejaVuSans-5b" x="495.556641"/>
     <use xlink:href="#DejaVuSans-31" x="534.570312"/>
     <use xlink:href="#DejaVuSans-5d" x="598.193359"/>
    </g>
   </g>
   <g id="patch_8">
    <path d="M 364.457942 364.296618 
Q 408.881288 344.076774 452.28705 324.320097 
" style="fill: none; stroke: #000000; stroke-linecap: round"/>
    <path d="M 447.817894 324.156861 
L 452.28705 324.320097 
L 449.474968 327.79748 
" style="fill: none; stroke: #000000; stroke-linecap: round"/>
   </g>
   <g id="text_23">
    <!-- The intersection point of -->
    <g transform="translate(274.018973 374.722188)scale(0.1 -0.1)">
     <use xlink:href="#DejaVuSans-54"/>
     <use xlink:href="#DejaVuSans-68" x="61.083984"/>
     <use xlink:href="#DejaVuSans-65" x="124.462891"/>
     <use xlink:href="#DejaVuSans-20" x="185.986328"/>
     <use xlink:href="#DejaVuSans-69" x="217.773438"/>
     <use xlink:href="#DejaVuSans-6e" x="245.556641"/>
     <use xlink:href="#DejaVuSans-74" x="308.935547"/>
     <use xlink:href="#DejaVuSans-65" x="348.144531"/>
     <use xlink:href="#DejaVuSans-72" x="409.667969"/>
     <use xlink:href="#DejaVuSans-73" x="450.78125"/>
     <use xlink:href="#DejaVuSans-65" x="502.880859"/>
     <use xlink:href="#DejaVuSans-63" x="564.404297"/>
     <use xlink:href="#DejaVuSans-74" x="619.384766"/>
     <use xlink:href="#DejaVuSans-69" x="658.59375"/>
     <use xlink:href="#DejaVuSans-6f" x="686.376953"/>
     <use xlink:href="#DejaVuSans-6e" x="747.558594"/>
     <use xlink:href="#DejaVuSans-20" x="810.9375"/>
     <use xlink:href="#DejaVuSans-70" x="842.724609"/>
     <use xlink:href="#DejaVuSans-6f" x="906.201172"/>
     <use xlink:href="#DejaVuSans-69" x="967.382812"/>
     <use xlink:href="#DejaVuSans-6e" x="995.166016"/>
     <use xlink:href="#DejaVuSans-74" x="1058.544922"/>
     <use xlink:href="#DejaVuSans-20" x="1097.753906"/>
     <use xlink:href="#DejaVuSans-6f" x="1129.541016"/>
     <use xlink:href="#DejaVuSans-66" x="1190.722656"/>
    </g>
    <!--  f[1] and f[2] -->
    <g transform="translate(303.454129 385.92)scale(0.1 -0.1)">
     <use xlink:href="#DejaVuSans-20"/>
     <use xlink:href="#DejaVuSans-66" x="31.787109"/>
     <use xlink:href="#DejaVuSans-5b" x="66.992188"/>
     <use xlink:href="#DejaVuSans-31" x="106.005859"/>
     <use xlink:href="#DejaVuSans-5d" x="169.628906"/>
     <use xlink:href="#DejaVuSans-20" x="208.642578"/>
     <use xlink:href="#DejaVuSans-61" x="240.429688"/>
     <use xlink:href="#DejaVuSans-6e" x="301.708984"/>
     <use xlink:href="#DejaVuSans-64" x="365.087891"/>
     <use xlink:href="#DejaVuSans-20" x="428.564453"/>
     <use xlink:href="#DejaVuSans-66" x="460.351562"/>
     <use xlink:href="#DejaVuSans-5b" x="495.556641"/>
     <use xlink:href="#DejaVuSans-32" x="534.570312"/>
     <use xlink:href="#DejaVuSans-5d" x="598.193359"/>
    </g>
   </g>
   <g id="patch_9">
    <path d="M 356.8489 137.149219 
Q 322.757174 147.664452 289.733816 157.850159 
" style="fill: none; stroke: #000000; stroke-linecap: round"/>
    <path d="M 294.145604 158.582363 
L 289.733816 157.850159 
L 292.966652 154.760051 
" style="fill: none; stroke: #000000; stroke-linecap: round"/>
   </g>
   <g id="text_24">
    <!-- The intersection point of -->
    <g transform="translate(337.790402 121.282188)scale(0.1 -0.1)">
     <use xlink:href="#DejaVuSans-54"/>
     <use xlink:href="#DejaVuSans-68" x="61.083984"/>
     <use xlink:href="#DejaVuSans-65" x="124.462891"/>
     <use xlink:href="#DejaVuSans-20" x="185.986328"/>
     <use xlink:href="#DejaVuSans-69" x="217.773438"/>
     <use xlink:href="#DejaVuSans-6e" x="245.556641"/>
     <use xlink:href="#DejaVuSans-74" x="308.935547"/>
     <use xlink:href="#DejaVuSans-65" x="348.144531"/>
     <use xlink:href="#DejaVuSans-72" x="409.667969"/>
     <use xlink:href="#DejaVuSans-73" x="450.78125"/>
     <use xlink:href="#DejaVuSans-65" x="502.880859"/>
     <use xlink:href="#DejaVuSans-63" x="564.404297"/>
     <use xlink:href="#DejaVuSans-74" x="619.384766"/>
     <use xlink:href="#DejaVuSans-69" x="658.59375"/>
     <use xlink:href="#DejaVuSans-6f" x="686.376953"/>
     <use xlink:href="#DejaVuSans-6e" x="747.558594"/>
     <use xlink:href="#DejaVuSans-20" x="810.9375"/>
     <use xlink:href="#DejaVuSans-70" x="842.724609"/>
     <use xlink:href="#DejaVuSans-6f" x="906.201172"/>
     <use xlink:href="#DejaVuSans-69" x="967.382812"/>
     <use xlink:href="#DejaVuSans-6e" x="995.166016"/>
     <use xlink:href="#DejaVuSans-74" x="1058.544922"/>
     <use xlink:href="#DejaVuSans-20" x="1097.753906"/>
     <use xlink:href="#DejaVuSans-6f" x="1129.541016"/>
     <use xlink:href="#DejaVuSans-66" x="1190.722656"/>
    </g>
    <!--  f[0] and f[2] -->
    <g transform="translate(367.225558 132.48)scale(0.1 -0.1)">
     <use xlink:href="#DejaVuSans-20"/>
     <use xlink:href="#DejaVuSans-66" x="31.787109"/>
     <use xlink:href="#DejaVuSans-5b" x="66.992188"/>
     <use xlink:href="#DejaVuSans-30" x="106.005859"/>
     <use xlink:href="#DejaVuSans-5d" x="169.628906"/>
     <use xlink:href="#DejaVuSans-20" x="208.642578"/>
     <use xlink:href="#DejaVuSans-61" x="240.429688"/>
     <use xlink:href="#DejaVuSans-6e" x="301.708984"/>
     <use xlink:href="#DejaVuSans-64" x="365.087891"/>
     <use xlink:href="#DejaVuSans-20" x="428.564453"/>
     <use xlink:href="#DejaVuSans-66" x="460.351562"/>
     <use xlink:href="#DejaVuSans-5b" x="495.556641"/>
     <use xlink:href="#DejaVuSans-32" x="534.570312"/>
     <use xlink:href="#DejaVuSans-5d" x="598.193359"/>
    </g>
   </g>
   <g id="text_25">
    <!-- All lines in one figure -->
    <g transform="translate(527.331563 63.12)scale(0.12 -0.12)">
     <defs>
      <path id="DejaVuSans-41" d="M 2188 4044 
L 1331 1722 
L 3047 1722 
L 2188 4044 
z
M 1831 4666 
L 2547 4666 
L 4325 0 
L 3669 0 
L 3244 1197 
L 1141 1197 
L 716 0 
L 50 0 
L 1831 4666 
z
" transform="scale(0.015625)"/>
      <path id="DejaVuSans-6c" d="M 603 4863 
L 1178 4863 
L 1178 0 
L 603 0 
L 603 4863 
z
" transform="scale(0.015625)"/>
      <path id="DejaVuSans-67" d="M 2906 1791 
Q 2906 2416 2648 2759 
Q 2391 3103 1925 3103 
Q 1463 3103 1205 2759 
Q 947 2416 947 1791 
Q 947 1169 1205 825 
Q 1463 481 1925 481 
Q 2391 481 2648 825 
Q 2906 1169 2906 1791 
z
M 3481 434 
Q 3481 -459 3084 -895 
Q 2688 -1331 1869 -1331 
Q 1566 -1331 1297 -1286 
Q 1028 -1241 775 -1147 
L 775 -588 
Q 1028 -725 1275 -790 
Q 1522 -856 1778 -856 
Q 2344 -856 2625 -561 
Q 2906 -266 2906 331 
L 2906 616 
Q 2728 306 2450 153 
Q 2172 0 1784 0 
Q 1141 0 747 490 
Q 353 981 353 1791 
Q 353 2603 747 3093 
Q 1141 3584 1784 3584 
Q 2172 3584 2450 3431 
Q 2728 3278 2906 2969 
L 2906 3500 
L 3481 3500 
L 3481 434 
z
" transform="scale(0.015625)"/>
      <path id="DejaVuSans-75" d="M 544 1381 
L 544 3500 
L 1119 3500 
L 1119 1403 
Q 1119 906 1312 657 
Q 1506 409 1894 409 
Q 2359 409 2629 706 
Q 2900 1003 2900 1516 
L 2900 3500 
L 3475 3500 
L 3475 0 
L 2900 0 
L 2900 538 
Q 2691 219 2414 64 
Q 2138 -91 1772 -91 
Q 1169 -91 856 284 
Q 544 659 544 1381 
z
M 1991 3584 
L 1991 3584 
z
" transform="scale(0.015625)"/>
     </defs>
     <use xlink:href="#DejaVuSans-41"/>
     <use xlink:href="#DejaVuSans-6c" x="68.408203"/>
     <use xlink:href="#DejaVuSans-6c" x="96.191406"/>
     <use xlink:href="#DejaVuSans-20" x="123.974609"/>
     <use xlink:href="#DejaVuSans-6c" x="155.761719"/>
     <use xlink:href="#DejaVuSans-69" x="183.544922"/>
     <use xlink:href="#DejaVuSans-6e" x="211.328125"/>
     <use xlink:href="#DejaVuSans-65" x="274.707031"/>
     <use xlink:href="#DejaVuSans-73" x="336.230469"/>
     <use xlink:href="#DejaVuSans-20" x="388.330078"/>
     <use xlink:href="#DejaVuSans-69" x="420.117188"/>
     <use xlink:href="#DejaVuSans-6e" x="447.900391"/>
     <use xlink:href="#DejaVuSans-20" x="511.279297"/>
     <use xlink:href="#DejaVuSans-6f" x="543.066406"/>
     <use xlink:href="#DejaVuSans-6e" x="604.248047"/>
     <use xlink:href="#DejaVuSans-65" x="667.626953"/>
     <use xlink:href="#DejaVuSans-20" x="729.150391"/>
     <use xlink:href="#DejaVuSans-66" x="760.9375"/>
     <use xlink:href="#DejaVuSans-69" x="796.142578"/>
     <use xlink:href="#DejaVuSans-67" x="823.925781"/>
     <use xlink:href="#DejaVuSans-75" x="887.402344"/>
     <use xlink:href="#DejaVuSans-72" x="950.78125"/>
     <use xlink:href="#DejaVuSans-65" x="989.644531"/>
    </g>
   </g>
   <g id="legend_1">
    <g id="patch_10">
     <path d="M 980.114062 121.154375 
L 1029.8 121.154375 
Q 1031.8 121.154375 1031.8 119.154375 
L 1031.8 76.12 
Q 1031.8 74.12 1029.8 74.12 
L 980.114062 74.12 
Q 978.114062 74.12 978.114062 76.12 
L 978.114062 119.154375 
Q 978.114062 121.154375 980.114062 121.154375 
z
" style="fill: #ffffff; opacity: 0.8; stroke: #cccccc; stroke-linejoin: miter"/>
    </g>
    <g id="line2d_39">
     <path d="M 982.114062 82.218438 
L 992.114062 82.218438 
L 1002.114062 82.218438 
" style="fill: none; stroke-dasharray: 9.6,2.4,1.5,2.4; stroke-dashoffset: 0; stroke: #00bfbf; stroke-width: 1.5"/>
    </g>
    <g id="text_26">
     <!-- f[0] -->
     <g transform="translate(1010.114062 85.718438)scale(0.1 -0.1)">
      <use xlink:href="#DejaVuSans-66"/>
      <use xlink:href="#DejaVuSans-5b" x="35.205078"/>
      <use xlink:href="#DejaVuSans-30" x="74.21875"/>
      <use xlink:href="#DejaVuSans-5d" x="137.841797"/>
     </g>
    </g>
    <g id="line2d_40">
     <path d="M 982.114062 96.896563 
L 992.114062 96.896563 
L 1002.114062 96.896563 
" style="fill: none; stroke-dasharray: 5.55,2.4; stroke-dashoffset: 0; stroke: #bfbf00; stroke-width: 1.5"/>
    </g>
    <g id="text_27">
     <!-- f[1] -->
     <g transform="translate(1010.114062 100.396563)scale(0.1 -0.1)">
      <use xlink:href="#DejaVuSans-66"/>
      <use xlink:href="#DejaVuSans-5b" x="35.205078"/>
      <use xlink:href="#DejaVuSans-31" x="74.21875"/>
      <use xlink:href="#DejaVuSans-5d" x="137.841797"/>
     </g>
    </g>
    <g id="line2d_41">
     <path d="M 982.114062 111.574688 
L 992.114062 111.574688 
L 1002.114062 111.574688 
" style="fill: none; stroke-dasharray: 1.5,2.475; stroke-dashoffset: 0; stroke: #bf00bf; stroke-width: 1.5"/>
    </g>
    <g id="text_28">
     <!-- f[2] -->
     <g transform="translate(1010.114062 115.074688)scale(0.1 -0.1)">
      <use xlink:href="#DejaVuSans-66"/>
      <use xlink:href="#DejaVuSans-5b" x="35.205078"/>
      <use xlink:href="#DejaVuSans-32" x="74.21875"/>
      <use xlink:href="#DejaVuSans-5d" x="137.841797"/>
     </g>
    </g>
   </g>
  </g>
 </g>
 <defs>
  <clipPath id="p8b77d0ad73">
   <rect x="144" y="69.12" width="892.8" height="443.52"/>
  </clipPath>
 </defs>
</svg>
